<?xml version="1.0" encoding="utf-8"?>
<!-- Generator: Adobe Illustrator 21.0.0, SVG Export Plug-In . SVG Version: 6.00 Build 0)  -->
<svg version="1.1" id="Layer_1" xmlns="http://www.w3.org/2000/svg" xmlns:xlink="http://www.w3.org/1999/xlink" x="0px" y="0px"
	 viewBox="0 0 2267.7 1602.6" style="enable-background:new 0 0 2267.7 1602.6;" xml:space="preserve">
<style type="text/css">
	.st0{fill:#FFFFFF;}
	.st1{opacity:0.6;fill:#1DE9B6;}
	.st2{opacity:0.6;fill:#FA2F31;}
	.st3{opacity:0.6;fill:#F8C51C;}
	.st4{opacity:0.6;fill:#04A9F5;}
	.st5{opacity:0.6;fill:none;stroke:#1DE9B6;stroke-width:3;stroke-miterlimit:10;}
	.st6{opacity:0.6;fill:none;stroke:#FA2F31;stroke-width:3;stroke-miterlimit:10;}
	.st7{opacity:0.6;fill:none;stroke:#F8C51C;stroke-width:3;stroke-miterlimit:10;}
	.st8{opacity:0.6;fill:none;stroke:#04A9F5;stroke-width:3;stroke-miterlimit:10;}
	.st9{fill:#E8E8E8;}
	.st10{fill:#CECECE;}
	.st11{fill:none;stroke:#FFFFFF;stroke-width:3;stroke-linecap:round;stroke-miterlimit:10;}
	.st12{opacity:0.6;}
	.st13{fill:none;stroke:#1DE9B6;stroke-width:3;stroke-linecap:round;stroke-miterlimit:10;}
	.st14{fill:none;stroke:#FA2F31;stroke-width:3;stroke-linecap:round;stroke-miterlimit:10;}
	.st15{fill:none;stroke:#F8C51C;stroke-width:3;stroke-linecap:round;stroke-miterlimit:10;}
	.st16{fill:none;stroke:#04A9F5;stroke-width:3;stroke-linecap:round;stroke-miterlimit:10;}
	.st17{opacity:0.5;fill:none;stroke:#FFFFFF;stroke-width:3;stroke-linecap:round;stroke-miterlimit:10;}
	.st18{opacity:0.4;}
	.st19{opacity:0.5;fill:none;stroke:#1C1C1C;stroke-width:3;stroke-linecap:round;stroke-miterlimit:10;}
</style>
<rect class="st0" width="2267.7" height="1500"/>
<path class="st1" d="M1072.4,449H124.4c-6.6,0-12-5.4-12-12V250.7c0-6.6,5.4-12,12-12h948.1c6.6,0,12,5.4,12,12V437
	C1084.4,443.6,1079,449,1072.4,449z"/>
<path class="st2" d="M1072.4,754.4H124.4c-6.6,0-12-5.4-12-12V556c0-6.6,5.4-12,12-12h948.1c6.6,0,12,5.4,12,12v186.4
	C1084.4,749,1079,754.4,1072.4,754.4z"/>
<path class="st3" d="M1072.4,1059.8H124.4c-6.6,0-12-5.4-12-12V861.4c0-6.6,5.4-12,12-12h948.1c6.6,0,12,5.4,12,12v186.4
	C1084.4,1054.4,1079,1059.8,1072.4,1059.8z"/>
<path class="st4" d="M1072.4,1365.1H124.4c-6.6,0-12-5.4-12-12v-186.4c0-6.6,5.4-12,12-12h948.1c6.6,0,12,5.4,12,12v186.4
	C1084.4,1359.7,1079,1365.1,1072.4,1365.1z"/>
<path class="st5" d="M2144,449h-948.1c-6.6,0-12-5.4-12-12V250.7c0-6.6,5.4-12,12-12H2144c6.6,0,12,5.4,12,12V437
	C2156,443.6,2150.6,449,2144,449z"/>
<path class="st6" d="M2144,754.4h-948.1c-6.6,0-12-5.4-12-12V556c0-6.6,5.4-12,12-12H2144c6.6,0,12,5.4,12,12v186.4
	C2156,749,2150.6,754.4,2144,754.4z"/>
<path class="st7" d="M2144,1059.8h-948.1c-6.6,0-12-5.4-12-12V861.4c0-6.6,5.4-12,12-12H2144c6.6,0,12,5.4,12,12v186.4
	C2156,1054.4,2150.6,1059.8,2144,1059.8z"/>
<path class="st8" d="M2144,1365.1h-948.1c-6.6,0-12-5.4-12-12v-186.4c0-6.6,5.4-12,12-12H2144c6.6,0,12,5.4,12,12v186.4
	C2156,1359.7,2150.6,1365.1,2144,1365.1z"/>
<g>
	<rect class="st9" width="2267.7" height="101.4"/>
	<circle class="st10" cx="64" cy="50.7" r="19.7"/>
	<circle class="st10" cx="132.1" cy="50.7" r="19.7"/>
	<circle class="st10" cx="195.5" cy="50.7" r="19.7"/>
</g>
<g>
	<line class="st11" x1="1056.2" y1="248.6" x2="1069" y2="262.8"/>
	<line class="st11" x1="1056.1" y1="262.7" x2="1069.1" y2="248.8"/>
</g>
<g class="st12">
	<line class="st13" x1="2126.3" y1="248.6" x2="2139.1" y2="262.8"/>
	<line class="st13" x1="2126.2" y1="262.7" x2="2139.2" y2="248.8"/>
</g>
<g class="st12">
	<line class="st14" x1="2126.3" y1="562.8" x2="2139.1" y2="577"/>
	<line class="st14" x1="2126.2" y1="576.9" x2="2139.2" y2="563"/>
</g>
<g class="st12">
	<line class="st15" x1="2126.3" y1="867.1" x2="2139.1" y2="881.3"/>
	<line class="st15" x1="2126.2" y1="881.1" x2="2139.2" y2="867.2"/>
</g>
<g class="st12">
	<line class="st16" x1="2126.3" y1="1171.7" x2="2139.1" y2="1185.9"/>
	<line class="st16" x1="2126.2" y1="1185.7" x2="2139.2" y2="1171.8"/>
</g>
<g>
	<line class="st11" x1="1062.1" y1="559.8" x2="1074.9" y2="574"/>
	<line class="st11" x1="1062" y1="573.8" x2="1075.1" y2="559.9"/>
</g>
<g>
	<line class="st11" x1="1062.1" y1="862.9" x2="1074.9" y2="877.1"/>
	<line class="st11" x1="1062" y1="877" x2="1075.1" y2="863.1"/>
</g>
<g>
	<line class="st11" x1="1062.1" y1="1170.3" x2="1074.9" y2="1184.5"/>
	<line class="st11" x1="1062" y1="1184.4" x2="1075.1" y2="1170.4"/>
</g>
<g>
	<path class="st17" d="M250.9,327.6c5-4.4,11.6-6.9,18.3-7.1c-1.1,1.4-0.5,3.6,0.9,4.8c1.4,1.2,3.2,1.5,5,1.6
		c3.8,0.3,7.6-0.3,11.2-1.5c6.8-2.4,14-7.3,20.6-4.4c1.4,3.7,6.2,5.8,9.8,4.3c-0.6,2.1,1.4,4.3,3.6,4.7c2.2,0.4,4.4-0.3,6.6-0.9
		c6.4-1.7,13.1-2.1,19.7-1.1"/>
	<path class="st17" d="M376.7,331.2c5.5-2.4,11-4.8,16.5-7.2c2.9-1.3,6.1-2.6,9.2-1.7c3.1,0.8,5.4,4.9,3.3,7.3
		c2.8,2.3,6.7-0.6,9.9-2.3c4.4-2.3,9.6-2.2,14.6-2.1c19,0.6,38,1.2,57,1.7"/>
	<path class="st17" d="M510.5,336c21-5.9,43.3-3.9,65.1-3.3c20.1,0.6,40.2,0.1,60.2-1.6c4.1-0.3,8.1-0.7,12.2-1.1
		c1.4-0.1,2.8-0.3,4.2-0.4c8.9-0.8,17.7-1.7,26.6-2.2c23.8-1.4,47.7-0.3,71.3,3.1"/>
	<path class="st17" d="M777.9,330.2c2.8,0.2,5.7,0.3,8.5,0.5c-2.2,2.3,0.2,6.5,3.4,7.2s6.3-1,9.3-2.3c9.9-4.3,20.9-6,31.6-4.7
		c3.4,0.4,6.8,1.1,10.2,1.8"/>
	<path class="st17" d="M866.2,335.3c4.9-2.7,10.1,2.7,15.2,4.8c7.5,3.2,15.9-0.8,23.8-2.9c16.8-4.6,35-0.9,52-5
		c10.1-2.5,20.7-7.7,30.3-3.8c-0.9,3.7,4.4,5.4,8.3,5.5c15.1,0,30.3,0.1,45.4,0.1"/>
	<path class="st17" d="M152.3,366c4.1-0.5,8.2-0.9,12.3-1.4c-2,3.7,3.2,7.7,7.3,6.9c4.1-0.8,7.3-4.1,10.9-6.1
		c6.6-3.7,14.7-3.1,22.3-2.5c8.8,0.7,17.5,1.5,26.3,2.2c2,0.2,4,0.4,5.7,1.4c1.2,0.7,2.1,1.8,3.3,2.6c8.2,6.2,19.4-2.5,29.7-3.1
		c13.2-0.8,26.1,11.8,38.2,6.5"/>
	<path class="st17" d="M341.8,373c8.5-1.2,17.1-2.3,25.6-3.5c3.2-0.4,6.6-0.8,9.5,0.6c2.9,1.5,4.5,5.6,2.4,8
		c40.1,0.6,80.2,1.1,120.2,1.6c14.9,0.2,31,0,43-8.8"/>
	<path class="st17" d="M580.2,373.7c7.3-0.8,14.5-1.7,21.8-2.5c2-0.2,4.1-0.4,5.9,0.5c2,1,3,3.2,4.8,4.6c2.6,1.9,6.2,1.6,9.4,1.3
		c6-0.7,11.9-1.3,17.9-2c13.4-1.5,27.1-3,40.4-0.4c4.3,0.8,8.9,2.1,13.1,0.7c1.6-0.6,3.2-1.5,4.9-1.7c2.8-0.4,5.5,1.3,8,2.6
		c5.9,3,12.7,4.3,19.3,3.6c13.5-1.5,27.9-10.7,39.4-3.4"/>
	<g>
		<path class="st17" d="M149.3,322.4c2.1-2.8,6.3-2.5,9.6-1.7c6.6,1.4,13.6,3.4,19.7,0.6c2.7-1.2,5-3.2,7.9-3.6
			c1.5-0.2,3.1,0.1,4.6,0.4c11.3,2.3,22.6,4.6,33.9,6.9"/>
		<path class="st17" d="M819.6,380.7c11.5,0,23-0.1,34.5-0.1c3.4,0,6.9,0,10.3,0c7,0,13.9,0,20.9-0.1c28.8-0.1,57.5-0.2,86.3-0.3
			c3.2,0,6.6,0,9.6,1.2c0.5-6.4,9.5-7.3,15.8-6.2c9.1,1.5,18.3,3,27.4,4.5"/>
	</g>
</g>
<g>
	<path class="st17" d="M250.9,627.3c5-4.4,11.6-6.9,18.3-7.1c-1.1,1.4-0.5,3.6,0.9,4.8c1.4,1.2,3.2,1.5,5,1.6
		c3.8,0.3,7.6-0.3,11.2-1.5c6.8-2.4,14-7.3,20.6-4.4c1.4,3.7,6.2,5.8,9.8,4.3c-0.6,2.1,1.4,4.3,3.6,4.7c2.2,0.4,4.4-0.3,6.6-0.9
		c6.4-1.7,13.1-2.1,19.7-1.1"/>
	<path class="st17" d="M376.7,630.8c5.5-2.4,11-4.8,16.5-7.2c2.9-1.3,6.1-2.6,9.2-1.7c3.1,0.8,5.4,4.9,3.3,7.3
		c2.8,2.3,6.7-0.6,9.9-2.3c4.4-2.3,9.6-2.2,14.6-2.1c19,0.6,38,1.2,57,1.7"/>
	<path class="st17" d="M510.5,635.7c21-5.9,43.3-3.9,65.1-3.3c20.1,0.6,40.2,0.1,60.2-1.6c4.1-0.3,8.1-0.7,12.2-1.1
		c1.4-0.1,2.8-0.3,4.2-0.4c8.9-0.8,17.7-1.7,26.6-2.2c23.8-1.4,47.7-0.3,71.3,3.1"/>
	<path class="st17" d="M777.9,629.9c2.8,0.2,5.7,0.3,8.5,0.5c-2.2,2.3,0.2,6.5,3.4,7.2c3.2,0.6,6.3-1,9.3-2.3
		c9.9-4.3,20.9-6,31.6-4.7c3.4,0.4,6.8,1.1,10.2,1.8"/>
	<path class="st17" d="M866.2,634.9c4.9-2.7,10.1,2.7,15.2,4.8c7.5,3.2,15.9-0.8,23.8-2.9c16.8-4.6,35-0.9,52-5
		c10.1-2.5,20.7-7.7,30.3-3.8c-0.9,3.7,4.4,5.4,8.3,5.5c15.1,0,30.3,0.1,45.4,0.1"/>
	<path class="st17" d="M152.3,665.7c4.1-0.5,8.2-0.9,12.3-1.4c-2,3.7,3.2,7.7,7.3,6.9c4.1-0.8,7.3-4.1,10.9-6.1
		c6.6-3.7,14.7-3.1,22.3-2.5c8.8,0.7,17.5,1.5,26.3,2.2c2,0.2,4,0.4,5.7,1.4c1.2,0.7,2.1,1.8,3.3,2.6c8.2,6.2,19.4-2.5,29.7-3.1
		c13.2-0.8,26.1,11.8,38.2,6.5"/>
	<path class="st17" d="M341.8,672.7c8.5-1.2,17.1-2.3,25.6-3.5c3.2-0.4,6.6-0.8,9.5,0.6c2.9,1.5,4.5,5.6,2.4,8
		c40.1,0.6,80.2,1.1,120.2,1.6c14.9,0.2,31,0,43-8.8"/>
	<path class="st17" d="M580.2,673.3c7.3-0.8,14.5-1.7,21.8-2.5c2-0.2,4.1-0.4,5.9,0.5c2,1,3,3.2,4.8,4.6c2.6,1.9,6.2,1.6,9.4,1.3
		c6-0.7,11.9-1.3,17.9-2c13.4-1.5,27.1-3,40.4-0.4c4.3,0.8,8.9,2.1,13.1,0.7c1.6-0.6,3.2-1.5,4.9-1.7c2.8-0.4,5.5,1.3,8,2.6
		c5.9,3,12.7,4.3,19.3,3.6c13.5-1.5,27.9-10.7,39.4-3.4"/>
	<g>
		<path class="st17" d="M149.3,622.1c2.1-2.8,6.3-2.5,9.6-1.7c6.6,1.4,13.6,3.4,19.7,0.6c2.7-1.2,5-3.2,7.9-3.6
			c1.5-0.2,3.1,0.1,4.6,0.4c11.3,2.3,22.6,4.6,33.9,6.9"/>
		<path class="st17" d="M819.6,680.4c11.5,0,23-0.1,34.5-0.1c3.4,0,6.9,0,10.3,0c7,0,13.9,0,20.9-0.1c28.8-0.1,57.5-0.2,86.3-0.3
			c3.2,0,6.6,0,9.6,1.2c0.5-6.4,9.5-7.3,15.8-6.2c9.1,1.5,18.3,3,27.4,4.5"/>
	</g>
</g>
<g>
	<path class="st17" d="M250.9,932.7c5-4.4,11.6-6.9,18.3-7.1c-1.1,1.4-0.5,3.6,0.9,4.8s3.2,1.5,5,1.6c3.8,0.3,7.6-0.3,11.2-1.5
		c6.8-2.4,14-7.3,20.6-4.4c1.4,3.7,6.2,5.8,9.8,4.3c-0.6,2.1,1.4,4.3,3.6,4.7c2.2,0.4,4.4-0.3,6.6-0.9c6.4-1.7,13.1-2.1,19.7-1.1"/>
	<path class="st17" d="M376.7,936.2c5.5-2.4,11-4.8,16.5-7.2c2.9-1.3,6.1-2.6,9.2-1.7s5.4,4.9,3.3,7.3c2.8,2.3,6.7-0.6,9.9-2.3
		c4.4-2.3,9.6-2.2,14.6-2.1c19,0.6,38,1.2,57,1.7"/>
	<path class="st17" d="M510.5,941.1c21-5.9,43.3-3.9,65.1-3.3c20.1,0.6,40.2,0.1,60.2-1.6c4.1-0.3,8.1-0.7,12.2-1.1
		c1.4-0.1,2.8-0.3,4.2-0.4c8.9-0.8,17.7-1.7,26.6-2.2c23.8-1.4,47.7-0.3,71.3,3.1"/>
	<path class="st17" d="M777.9,935.3c2.8,0.2,5.7,0.3,8.5,0.5c-2.2,2.3,0.2,6.5,3.4,7.2c3.2,0.6,6.3-1,9.3-2.3
		c9.9-4.3,20.9-6,31.6-4.7c3.4,0.4,6.8,1.1,10.2,1.8"/>
	<path class="st17" d="M866.2,940.3c4.9-2.7,10.1,2.7,15.2,4.8c7.5,3.2,15.9-0.8,23.8-2.9c16.8-4.6,35-0.9,52-5
		c10.1-2.5,20.7-7.7,30.3-3.8c-0.9,3.7,4.4,5.4,8.3,5.5c15.1,0,30.3,0.1,45.4,0.1"/>
	<path class="st17" d="M152.3,971.1c4.1-0.5,8.2-0.9,12.3-1.4c-2,3.7,3.2,7.7,7.3,6.9c4.1-0.8,7.3-4.1,10.9-6.1
		c6.6-3.7,14.7-3.1,22.3-2.5c8.8,0.7,17.5,1.5,26.3,2.2c2,0.2,4,0.4,5.7,1.4c1.2,0.7,2.1,1.8,3.3,2.6c8.2,6.2,19.4-2.5,29.7-3.1
		c13.2-0.8,26.1,11.8,38.2,6.5"/>
	<path class="st17" d="M341.8,978.1c8.5-1.2,17.1-2.3,25.6-3.5c3.2-0.4,6.6-0.8,9.5,0.6c2.9,1.5,4.5,5.6,2.4,8
		c40.1,0.6,80.2,1.1,120.2,1.6c14.9,0.2,31,0,43-8.8"/>
	<path class="st17" d="M580.2,978.7c7.3-0.8,14.5-1.7,21.8-2.5c2-0.2,4.1-0.4,5.9,0.5c2,1,3,3.2,4.8,4.6c2.6,1.9,6.2,1.6,9.4,1.3
		c6-0.7,11.9-1.3,17.9-2c13.4-1.5,27.1-3,40.4-0.4c4.3,0.8,8.9,2.1,13.1,0.7c1.6-0.6,3.2-1.5,4.9-1.7c2.8-0.4,5.5,1.3,8,2.6
		c5.9,3,12.7,4.3,19.3,3.6c13.5-1.5,27.9-10.7,39.4-3.4"/>
	<g>
		<path class="st17" d="M149.3,927.4c2.1-2.8,6.3-2.5,9.6-1.7c6.6,1.4,13.6,3.4,19.7,0.6c2.7-1.2,5-3.2,7.9-3.6
			c1.5-0.2,3.1,0.1,4.6,0.4c11.3,2.3,22.6,4.6,33.9,6.9"/>
		<path class="st17" d="M819.6,985.8c11.5,0,23-0.1,34.5-0.1c3.4,0,6.9,0,10.3,0c7,0,13.9,0,20.9-0.1c28.8-0.1,57.5-0.2,86.3-0.3
			c3.2,0,6.6,0,9.6,1.2c0.5-6.4,9.5-7.3,15.8-6.2c9.1,1.5,18.3,3,27.4,4.5"/>
	</g>
</g>
<g>
	<path class="st17" d="M250.9,1238c5-4.4,11.6-6.9,18.3-7.1c-1.1,1.4-0.5,3.6,0.9,4.8s3.2,1.5,5,1.6c3.8,0.3,7.6-0.3,11.2-1.5
		c6.8-2.4,14-7.3,20.6-4.4c1.4,3.7,6.2,5.8,9.8,4.3c-0.6,2.1,1.4,4.3,3.6,4.7c2.2,0.4,4.4-0.3,6.6-0.9c6.4-1.7,13.1-2.1,19.7-1.1"/>
	<path class="st17" d="M376.7,1241.6c5.5-2.4,11-4.8,16.5-7.2c2.9-1.3,6.1-2.6,9.2-1.7c3.1,0.8,5.4,4.9,3.3,7.3
		c2.8,2.3,6.7-0.6,9.9-2.3c4.4-2.3,9.6-2.2,14.6-2.1c19,0.6,38,1.2,57,1.7"/>
	<path class="st17" d="M510.5,1246.4c21-5.9,43.3-3.9,65.1-3.3c20.1,0.6,40.2,0.1,60.2-1.6c4.1-0.3,8.1-0.7,12.2-1.1
		c1.4-0.1,2.8-0.3,4.2-0.4c8.9-0.8,17.7-1.7,26.6-2.2c23.8-1.4,47.7-0.3,71.3,3.1"/>
	<path class="st17" d="M777.9,1240.6c2.8,0.2,5.7,0.3,8.5,0.5c-2.2,2.3,0.2,6.5,3.4,7.2s6.3-1,9.3-2.3c9.9-4.3,20.9-6,31.6-4.7
		c3.4,0.4,6.8,1.1,10.2,1.8"/>
	<path class="st17" d="M866.2,1245.7c4.9-2.7,10.1,2.7,15.2,4.8c7.5,3.2,15.9-0.8,23.8-2.9c16.8-4.6,35-0.9,52-5
		c10.1-2.5,20.7-7.7,30.3-3.8c-0.9,3.7,4.4,5.4,8.3,5.5c15.1,0,30.3,0.1,45.4,0.1"/>
	<path class="st17" d="M152.3,1276.4c4.1-0.5,8.2-0.9,12.3-1.4c-2,3.7,3.2,7.7,7.3,6.9c4.1-0.8,7.3-4.1,10.9-6.1
		c6.6-3.7,14.7-3.1,22.3-2.5c8.8,0.7,17.5,1.5,26.3,2.2c2,0.2,4,0.4,5.7,1.4c1.2,0.7,2.1,1.8,3.3,2.6c8.2,6.2,19.4-2.5,29.7-3.1
		c13.2-0.8,26.1,11.8,38.2,6.5"/>
	<path class="st17" d="M341.8,1283.4c8.5-1.2,17.1-2.3,25.6-3.5c3.2-0.4,6.6-0.8,9.5,0.6c2.9,1.5,4.5,5.6,2.4,8
		c40.1,0.6,80.2,1.1,120.2,1.6c14.9,0.2,31,0,43-8.8"/>
	<path class="st17" d="M580.2,1284.1c7.3-0.8,14.5-1.7,21.8-2.5c2-0.2,4.1-0.4,5.9,0.5c2,1,3,3.2,4.8,4.6c2.6,1.9,6.2,1.6,9.4,1.3
		c6-0.7,11.9-1.3,17.9-2c13.4-1.5,27.1-3,40.4-0.4c4.3,0.8,8.9,2.1,13.1,0.7c1.6-0.6,3.2-1.5,4.9-1.7c2.8-0.4,5.5,1.3,8,2.6
		c5.9,3,12.7,4.3,19.3,3.6c13.5-1.5,27.9-10.7,39.4-3.4"/>
	<g>
		<path class="st17" d="M149.3,1232.8c2.1-2.8,6.3-2.5,9.6-1.7c6.6,1.4,13.6,3.4,19.7,0.6c2.7-1.2,5-3.2,7.9-3.6
			c1.5-0.2,3.1,0.1,4.6,0.4c11.3,2.3,22.6,4.6,33.9,6.9"/>
		<path class="st17" d="M819.6,1291.1c11.5,0,23-0.1,34.5-0.1c3.4,0,6.9,0,10.3,0c7,0,13.9,0,20.9-0.1c28.8-0.1,57.5-0.2,86.3-0.3
			c3.2,0,6.6,0,9.6,1.2c0.5-6.4,9.5-7.3,15.8-6.2c9.1,1.5,18.3,3,27.4,4.5"/>
	</g>
</g>
<g class="st18">
	<path class="st19" d="M1325.6,327.6c5-4.4,11.6-6.9,18.3-7.1c-1.1,1.4-0.5,3.6,0.9,4.8c1.4,1.2,3.2,1.5,5,1.6
		c3.8,0.3,7.6-0.3,11.2-1.5c6.8-2.4,14-7.3,20.6-4.4c1.4,3.7,6.2,5.8,9.8,4.3c-0.6,2.1,1.4,4.3,3.6,4.7c2.2,0.4,4.4-0.3,6.6-0.9
		c6.4-1.7,13.1-2.1,19.7-1.1"/>
	<path class="st19" d="M1451.4,331.2c5.5-2.4,11-4.8,16.5-7.2c2.9-1.3,6.1-2.6,9.2-1.7c3.1,0.8,5.4,4.9,3.3,7.3
		c2.8,2.3,6.7-0.6,9.9-2.3c4.4-2.3,9.6-2.2,14.6-2.1c19,0.6,38,1.2,57,1.7"/>
	<path class="st19" d="M1585.2,336c21-5.9,43.3-3.9,65.1-3.3c20.1,0.6,40.2,0.1,60.2-1.6c4.1-0.3,8.1-0.7,12.2-1.1
		c1.4-0.1,2.8-0.3,4.2-0.4c8.9-0.8,17.7-1.7,26.6-2.2c23.8-1.4,47.7-0.3,71.3,3.1"/>
	<path class="st19" d="M1852.6,330.2c2.8,0.2,5.7,0.3,8.5,0.5c-2.2,2.3,0.2,6.5,3.4,7.2s6.3-1,9.3-2.3c9.9-4.3,20.9-6,31.6-4.7
		c3.4,0.4,6.8,1.1,10.2,1.8"/>
	<path class="st19" d="M1940.9,335.3c4.9-2.7,10.1,2.7,15.2,4.8c7.5,3.2,15.9-0.8,23.8-2.9c16.8-4.6,35-0.9,52-5
		c10.1-2.5,20.7-7.7,30.3-3.8c-0.9,3.7,4.4,5.4,8.3,5.5c15.1,0,30.3,0.1,45.4,0.1"/>
	<path class="st19" d="M1227.1,366c4.1-0.5,8.2-0.9,12.3-1.4c-2,3.7,3.2,7.7,7.3,6.9c4.1-0.8,7.3-4.1,10.9-6.1
		c6.6-3.7,14.7-3.1,22.3-2.5c8.8,0.7,17.5,1.5,26.3,2.2c2,0.2,4,0.4,5.7,1.4c1.2,0.7,2.1,1.8,3.3,2.6c8.2,6.2,19.4-2.5,29.7-3.1
		c13.2-0.8,26.1,11.8,38.2,6.5"/>
	<path class="st19" d="M1416.5,373c8.5-1.2,17.1-2.3,25.6-3.5c3.2-0.4,6.6-0.8,9.5,0.6c2.9,1.5,4.5,5.6,2.4,8
		c40.1,0.6,80.2,1.1,120.2,1.6c14.9,0.2,31,0,43-8.8"/>
	<path class="st19" d="M1654.9,373.7c7.3-0.8,14.5-1.7,21.8-2.5c2-0.2,4.1-0.4,5.9,0.5c2,1,3,3.2,4.8,4.6c2.6,1.9,6.2,1.6,9.4,1.3
		c6-0.7,11.9-1.3,17.9-2c13.4-1.5,27.1-3,40.4-0.4c4.3,0.8,8.9,2.1,13.1,0.7c1.6-0.6,3.2-1.5,4.9-1.7c2.8-0.4,5.5,1.3,8,2.6
		c5.9,3,12.7,4.3,19.3,3.6c13.5-1.5,27.9-10.7,39.4-3.4"/>
	<g>
		<path class="st19" d="M1224,322.4c2.1-2.8,6.3-2.5,9.6-1.7c6.6,1.4,13.6,3.4,19.7,0.6c2.7-1.2,5-3.2,7.9-3.6
			c1.5-0.2,3.1,0.1,4.6,0.4c11.3,2.3,22.6,4.6,33.9,6.9"/>
		<path class="st19" d="M1894.3,380.7c11.5,0,23-0.1,34.5-0.1c3.4,0,6.9,0,10.3,0c7,0,13.9,0,20.9-0.1c28.8-0.1,57.5-0.2,86.3-0.3
			c3.2,0,6.6,0,9.6,1.2c0.5-6.4,9.5-7.3,15.8-6.2c9.1,1.5,18.3,3,27.4,4.5"/>
	</g>
</g>
<g class="st18">
	<path class="st19" d="M1325.6,627.3c5-4.4,11.6-6.9,18.3-7.1c-1.1,1.4-0.5,3.6,0.9,4.8c1.4,1.2,3.2,1.5,5,1.6
		c3.8,0.3,7.6-0.3,11.2-1.5c6.8-2.4,14-7.3,20.6-4.4c1.4,3.7,6.2,5.8,9.8,4.3c-0.6,2.1,1.4,4.3,3.6,4.7c2.2,0.4,4.4-0.3,6.6-0.9
		c6.4-1.7,13.1-2.1,19.7-1.1"/>
	<path class="st19" d="M1451.4,630.8c5.5-2.4,11-4.8,16.5-7.2c2.9-1.3,6.1-2.6,9.2-1.7c3.1,0.8,5.4,4.9,3.3,7.3
		c2.8,2.3,6.7-0.6,9.9-2.3c4.4-2.3,9.6-2.2,14.6-2.1c19,0.6,38,1.2,57,1.7"/>
	<path class="st19" d="M1585.2,635.7c21-5.9,43.3-3.9,65.1-3.3c20.1,0.6,40.2,0.1,60.2-1.6c4.1-0.3,8.1-0.7,12.2-1.1
		c1.4-0.1,2.8-0.3,4.2-0.4c8.9-0.8,17.7-1.7,26.6-2.2c23.8-1.4,47.7-0.3,71.3,3.1"/>
	<path class="st19" d="M1852.6,629.9c2.8,0.2,5.7,0.3,8.5,0.5c-2.2,2.3,0.2,6.5,3.4,7.2c3.2,0.6,6.3-1,9.3-2.3
		c9.9-4.3,20.9-6,31.6-4.7c3.4,0.4,6.8,1.1,10.2,1.8"/>
	<path class="st19" d="M1940.9,634.9c4.9-2.7,10.1,2.7,15.2,4.8c7.5,3.2,15.9-0.8,23.8-2.9c16.8-4.6,35-0.9,52-5
		c10.1-2.5,20.7-7.7,30.3-3.8c-0.9,3.7,4.4,5.4,8.3,5.5c15.1,0,30.3,0.1,45.4,0.1"/>
	<path class="st19" d="M1227.1,665.7c4.1-0.5,8.2-0.9,12.3-1.4c-2,3.7,3.2,7.7,7.3,6.9c4.1-0.8,7.3-4.1,10.9-6.1
		c6.6-3.7,14.7-3.1,22.3-2.5c8.8,0.7,17.5,1.5,26.3,2.2c2,0.2,4,0.4,5.7,1.4c1.2,0.7,2.1,1.8,3.3,2.6c8.2,6.2,19.4-2.5,29.7-3.1
		c13.2-0.8,26.1,11.8,38.2,6.5"/>
	<path class="st19" d="M1416.5,672.7c8.5-1.2,17.1-2.3,25.6-3.5c3.2-0.4,6.6-0.8,9.5,0.6c2.9,1.5,4.5,5.6,2.4,8
		c40.1,0.6,80.2,1.1,120.2,1.6c14.9,0.2,31,0,43-8.8"/>
	<path class="st19" d="M1654.9,673.3c7.3-0.8,14.5-1.7,21.8-2.5c2-0.2,4.1-0.4,5.9,0.5c2,1,3,3.2,4.8,4.6c2.6,1.9,6.2,1.6,9.4,1.3
		c6-0.7,11.9-1.3,17.9-2c13.4-1.5,27.1-3,40.4-0.4c4.3,0.8,8.9,2.1,13.1,0.7c1.6-0.6,3.2-1.5,4.9-1.7c2.8-0.4,5.5,1.3,8,2.6
		c5.9,3,12.7,4.3,19.3,3.6c13.5-1.5,27.9-10.7,39.4-3.4"/>
	<g>
		<path class="st19" d="M1224,622.1c2.1-2.8,6.3-2.5,9.6-1.7c6.6,1.4,13.6,3.4,19.7,0.6c2.7-1.2,5-3.2,7.9-3.6
			c1.5-0.2,3.1,0.1,4.6,0.4c11.3,2.3,22.6,4.6,33.9,6.9"/>
		<path class="st19" d="M1894.3,680.4c11.5,0,23-0.1,34.5-0.1c3.4,0,6.9,0,10.3,0c7,0,13.9,0,20.9-0.1c28.8-0.1,57.5-0.2,86.3-0.3
			c3.2,0,6.6,0,9.6,1.2c0.5-6.4,9.5-7.3,15.8-6.2c9.1,1.5,18.3,3,27.4,4.5"/>
	</g>
</g>
<g class="st18">
	<path class="st19" d="M1325.6,932.7c5-4.4,11.6-6.9,18.3-7.1c-1.1,1.4-0.5,3.6,0.9,4.8c1.4,1.2,3.2,1.5,5,1.6
		c3.8,0.3,7.6-0.3,11.2-1.5c6.8-2.4,14-7.3,20.6-4.4c1.4,3.7,6.2,5.8,9.8,4.3c-0.6,2.1,1.4,4.3,3.6,4.7s4.4-0.3,6.6-0.9
		c6.4-1.7,13.1-2.1,19.7-1.1"/>
	<path class="st19" d="M1451.4,936.2c5.5-2.4,11-4.8,16.5-7.2c2.9-1.3,6.1-2.6,9.2-1.7s5.4,4.9,3.3,7.3c2.8,2.3,6.7-0.6,9.9-2.3
		c4.4-2.3,9.6-2.2,14.6-2.1c19,0.6,38,1.2,57,1.7"/>
	<path class="st19" d="M1585.2,941.1c21-5.9,43.3-3.9,65.1-3.3c20.1,0.6,40.2,0.1,60.2-1.6c4.1-0.3,8.1-0.7,12.2-1.1
		c1.4-0.1,2.8-0.3,4.2-0.4c8.9-0.8,17.7-1.7,26.6-2.2c23.8-1.4,47.7-0.3,71.3,3.1"/>
	<path class="st19" d="M1852.6,935.3c2.8,0.2,5.7,0.3,8.5,0.5c-2.2,2.3,0.2,6.5,3.4,7.2c3.2,0.6,6.3-1,9.3-2.3
		c9.9-4.3,20.9-6,31.6-4.7c3.4,0.4,6.8,1.1,10.2,1.8"/>
	<path class="st19" d="M1940.9,940.3c4.9-2.7,10.1,2.7,15.2,4.8c7.5,3.2,15.9-0.8,23.8-2.9c16.8-4.6,35-0.9,52-5
		c10.1-2.5,20.7-7.7,30.3-3.8c-0.9,3.7,4.4,5.4,8.3,5.5c15.1,0,30.3,0.1,45.4,0.1"/>
	<path class="st19" d="M1227.1,971.1c4.1-0.5,8.2-0.9,12.3-1.4c-2,3.7,3.2,7.7,7.3,6.9c4.1-0.8,7.3-4.1,10.9-6.1
		c6.6-3.7,14.7-3.1,22.3-2.5c8.8,0.7,17.5,1.5,26.3,2.2c2,0.2,4,0.4,5.7,1.4c1.2,0.7,2.1,1.8,3.3,2.6c8.2,6.2,19.4-2.5,29.7-3.1
		c13.2-0.8,26.1,11.8,38.2,6.5"/>
	<path class="st19" d="M1416.5,978.1c8.5-1.2,17.1-2.3,25.6-3.5c3.2-0.4,6.6-0.8,9.5,0.6c2.9,1.5,4.5,5.6,2.4,8
		c40.1,0.6,80.2,1.1,120.2,1.6c14.9,0.2,31,0,43-8.8"/>
	<path class="st19" d="M1654.9,978.7c7.3-0.8,14.5-1.7,21.8-2.5c2-0.2,4.1-0.4,5.9,0.5c2,1,3,3.2,4.8,4.6c2.6,1.9,6.2,1.6,9.4,1.3
		c6-0.7,11.9-1.3,17.9-2c13.4-1.5,27.1-3,40.4-0.4c4.3,0.8,8.9,2.1,13.1,0.7c1.6-0.6,3.2-1.5,4.9-1.7c2.8-0.4,5.5,1.3,8,2.6
		c5.9,3,12.7,4.3,19.3,3.6c13.5-1.5,27.9-10.7,39.4-3.4"/>
	<g>
		<path class="st19" d="M1224,927.4c2.1-2.8,6.3-2.5,9.6-1.7c6.6,1.4,13.6,3.4,19.7,0.6c2.7-1.2,5-3.2,7.9-3.6
			c1.5-0.2,3.1,0.1,4.6,0.4c11.3,2.3,22.6,4.6,33.9,6.9"/>
		<path class="st19" d="M1894.3,985.8c11.5,0,23-0.1,34.5-0.1c3.4,0,6.9,0,10.3,0c7,0,13.9,0,20.9-0.1c28.8-0.1,57.5-0.2,86.3-0.3
			c3.2,0,6.6,0,9.6,1.2c0.5-6.4,9.5-7.3,15.8-6.2c9.1,1.5,18.3,3,27.4,4.5"/>
	</g>
</g>
<g class="st18">
	<path class="st19" d="M1325.6,1238c5-4.4,11.6-6.9,18.3-7.1c-1.1,1.4-0.5,3.6,0.9,4.8c1.4,1.2,3.2,1.5,5,1.6
		c3.8,0.3,7.6-0.3,11.2-1.5c6.8-2.4,14-7.3,20.6-4.4c1.4,3.7,6.2,5.8,9.8,4.3c-0.6,2.1,1.4,4.3,3.6,4.7c2.2,0.4,4.4-0.3,6.6-0.9
		c6.4-1.7,13.1-2.1,19.7-1.1"/>
	<path class="st19" d="M1451.4,1241.6c5.5-2.4,11-4.8,16.5-7.2c2.9-1.3,6.1-2.6,9.2-1.7c3.1,0.8,5.4,4.9,3.3,7.3
		c2.8,2.3,6.7-0.6,9.9-2.3c4.4-2.3,9.6-2.2,14.6-2.1c19,0.6,38,1.2,57,1.7"/>
	<path class="st19" d="M1585.2,1246.4c21-5.9,43.3-3.9,65.1-3.3c20.1,0.6,40.2,0.1,60.2-1.6c4.1-0.3,8.1-0.7,12.2-1.1
		c1.4-0.1,2.8-0.3,4.2-0.4c8.9-0.8,17.7-1.7,26.6-2.2c23.8-1.4,47.7-0.3,71.3,3.1"/>
	<path class="st19" d="M1852.6,1240.6c2.8,0.2,5.7,0.3,8.5,0.5c-2.2,2.3,0.2,6.5,3.4,7.2s6.3-1,9.3-2.3c9.9-4.3,20.9-6,31.6-4.7
		c3.4,0.4,6.8,1.1,10.2,1.8"/>
	<path class="st19" d="M1940.9,1245.7c4.9-2.7,10.1,2.7,15.2,4.8c7.5,3.2,15.9-0.8,23.8-2.9c16.8-4.6,35-0.9,52-5
		c10.1-2.5,20.7-7.7,30.3-3.8c-0.9,3.7,4.4,5.4,8.3,5.5c15.1,0,30.3,0.1,45.4,0.1"/>
	<path class="st19" d="M1227.1,1276.4c4.1-0.5,8.2-0.9,12.3-1.4c-2,3.7,3.2,7.7,7.3,6.9c4.1-0.8,7.3-4.1,10.9-6.1
		c6.6-3.7,14.7-3.1,22.3-2.5c8.8,0.7,17.5,1.5,26.3,2.2c2,0.2,4,0.4,5.7,1.4c1.2,0.7,2.1,1.8,3.3,2.6c8.2,6.2,19.4-2.5,29.7-3.1
		c13.2-0.8,26.1,11.8,38.2,6.5"/>
	<path class="st19" d="M1416.5,1283.4c8.5-1.2,17.1-2.3,25.6-3.5c3.2-0.4,6.6-0.8,9.5,0.6c2.9,1.5,4.5,5.6,2.4,8
		c40.1,0.6,80.2,1.1,120.2,1.6c14.9,0.2,31,0,43-8.8"/>
	<path class="st19" d="M1654.9,1284.1c7.3-0.8,14.5-1.7,21.8-2.5c2-0.2,4.1-0.4,5.9,0.5c2,1,3,3.2,4.8,4.6c2.6,1.9,6.2,1.6,9.4,1.3
		c6-0.7,11.9-1.3,17.9-2c13.4-1.5,27.1-3,40.4-0.4c4.3,0.8,8.9,2.1,13.1,0.7c1.6-0.6,3.2-1.5,4.9-1.7c2.8-0.4,5.5,1.3,8,2.6
		c5.9,3,12.7,4.3,19.3,3.6c13.5-1.5,27.9-10.7,39.4-3.4"/>
	<g>
		<path class="st19" d="M1224,1232.8c2.1-2.8,6.3-2.5,9.6-1.7c6.6,1.4,13.6,3.4,19.7,0.6c2.7-1.2,5-3.2,7.9-3.6
			c1.5-0.2,3.1,0.1,4.6,0.4c11.3,2.3,22.6,4.6,33.9,6.9"/>
		<path class="st19" d="M1894.3,1291.1c11.5,0,23-0.1,34.5-0.1c3.4,0,6.9,0,10.3,0c7,0,13.9,0,20.9-0.1c28.8-0.1,57.5-0.2,86.3-0.3
			c3.2,0,6.6,0,9.6,1.2c0.5-6.4,9.5-7.3,15.8-6.2c9.1,1.5,18.3,3,27.4,4.5"/>
	</g>
</g>
</svg>
