<?xml version="1.0" encoding="utf-8"?>
<!-- Generator: Adobe Illustrator 21.0.0, SVG Export Plug-In . SVG Version: 6.00 Build 0)  -->
<svg version="1.1" id="Layer_1" xmlns="http://www.w3.org/2000/svg" xmlns:xlink="http://www.w3.org/1999/xlink" x="0px" y="0px"
	 viewBox="0 0 2267.7 1602.6" style="enable-background:new 0 0 2267.7 1602.6;" xml:space="preserve">
<style type="text/css">
	.st0{fill:#FFFFFF;}
	.st1{opacity:0.6;fill:url(#SVGID_1_);}
	.st2{opacity:0.6;fill:url(#SVGID_2_);}
	.st3{opacity:0.6;fill:url(#SVGID_3_);}
	.st4{opacity:0.6;fill:url(#SVGID_4_);}
	.st5{opacity:0.6;fill:url(#SVGID_5_);}
	.st6{opacity:0.6;fill:url(#SVGID_6_);}
	.st7{opacity:0.6;fill:url(#SVGID_7_);}
	.st8{opacity:0.6;fill:url(#SVGID_8_);}
	.st9{opacity:0.6;fill:url(#SVGID_9_);}
	.st10{opacity:0.6;fill:url(#SVGID_10_);}
	.st11{opacity:0.6;fill:url(#SVGID_11_);}
	.st12{opacity:0.6;fill:url(#SVGID_12_);}
	.st13{opacity:0.6;fill:#899FD4;}
	.st14{opacity:0.6;fill:#1DE9B6;}
	.st15{opacity:0.6;fill:#FA2F31;}
	.st16{opacity:0.6;fill:#F8C51C;}
	.st17{opacity:0.6;fill:#04A9F5;}
	.st18{opacity:0.6;fill:#ECEDEF;}
	.st19{fill:#E8E8E8;}
	.st20{fill:#CECECE;}
</style>
<rect class="st0" width="2267.7" height="1387.3"/>
<linearGradient id="SVGID_1_" gradientUnits="userSpaceOnUse" x1="101.4538" y1="287.083" x2="562.9475" y2="287.083">
	<stop  offset="0" style="stop-color:#A389D4"/>
	<stop  offset="1" style="stop-color:#899FD4"/>
</linearGradient>
<path class="st1" d="M550.9,348.7H113.5c-6.6,0-12-5.4-12-12v-99.3c0-6.6,5.4-12,12-12h437.5c6.6,0,12,5.4,12,12v99.3
	C562.9,343.3,557.5,348.7,550.9,348.7z"/>
<linearGradient id="SVGID_2_" gradientUnits="userSpaceOnUse" x1="101.4538" y1="466.1107" x2="562.9475" y2="466.1107">
	<stop  offset="0" style="stop-color:#1DC5E9"/>
	<stop  offset="1" style="stop-color:#1DE9B6"/>
</linearGradient>
<path class="st2" d="M550.9,527.8H113.5c-6.6,0-12-5.4-12-12v-99.3c0-6.6,5.4-12,12-12h437.5c6.6,0,12,5.4,12,12v99.3
	C562.9,522.4,557.5,527.8,550.9,527.8z"/>
<linearGradient id="SVGID_3_" gradientUnits="userSpaceOnUse" x1="101.4538" y1="645.1385" x2="562.9475" y2="645.1385">
	<stop  offset="0" style="stop-color:#FA2F12"/>
	<stop  offset="1" style="stop-color:#FA2F31"/>
</linearGradient>
<path class="st3" d="M550.9,706.8H113.5c-6.6,0-12-5.4-12-12v-99.3c0-6.6,5.4-12,12-12h437.5c6.6,0,12,5.4,12,12v99.3
	C562.9,701.4,557.5,706.8,550.9,706.8z"/>
<linearGradient id="SVGID_4_" gradientUnits="userSpaceOnUse" x1="101.4538" y1="824.1662" x2="562.9475" y2="824.1662">
	<stop  offset="0" style="stop-color:#FCEE21"/>
	<stop  offset="1" style="stop-color:#F8C51C"/>
</linearGradient>
<path class="st4" d="M550.9,885.8H113.5c-6.6,0-12-5.4-12-12v-99.3c0-6.6,5.4-12,12-12h437.5c6.6,0,12,5.4,12,12v99.3
	C562.9,880.4,557.5,885.8,550.9,885.8z"/>
<linearGradient id="SVGID_5_" gradientUnits="userSpaceOnUse" x1="101.4538" y1="1182.2216" x2="562.9475" y2="1182.2216">
	<stop  offset="0" style="stop-color:#E6E6E6"/>
	<stop  offset="1" style="stop-color:#ECEDEF"/>
</linearGradient>
<path class="st5" d="M550.9,1243.9H113.5c-6.6,0-12-5.4-12-12v-99.3c0-6.6,5.4-12,12-12h437.5c6.6,0,12,5.4,12,12v99.3
	C562.9,1238.5,557.5,1243.9,550.9,1243.9z"/>
<linearGradient id="SVGID_6_" gradientUnits="userSpaceOnUse" x1="101.4538" y1="1003.1939" x2="562.9475" y2="1003.1939">
	<stop  offset="0" style="stop-color:#0071BC"/>
	<stop  offset="1" style="stop-color:#04A9F5"/>
</linearGradient>
<path class="st6" d="M550.9,1064.9H113.5c-6.6,0-12-5.4-12-12v-99.3c0-6.6,5.4-12,12-12h437.5c6.6,0,12,5.4,12,12v99.3
	C562.9,1059.5,557.5,1064.9,550.9,1064.9z"/>
<linearGradient id="SVGID_7_" gradientUnits="userSpaceOnUse" x1="1661.5363" y1="287.083" x2="2123.0298" y2="287.083">
	<stop  offset="0" style="stop-color:#A389D4"/>
	<stop  offset="1" style="stop-color:#899FD4"/>
</linearGradient>
<path class="st7" d="M2066.3,348.7h-348.1c-31.2,0-56.7-25.5-56.7-56.7v-9.9c0-31.2,25.5-56.7,56.7-56.7h348.1
	c31.2,0,56.7,25.5,56.7,56.7v9.9C2123,323.2,2097.5,348.7,2066.3,348.7z"/>
<linearGradient id="SVGID_8_" gradientUnits="userSpaceOnUse" x1="1661.5363" y1="466.1107" x2="2123.0298" y2="466.1107">
	<stop  offset="0" style="stop-color:#1DC5E9"/>
	<stop  offset="1" style="stop-color:#1DE9B6"/>
</linearGradient>
<path class="st8" d="M2066.3,527.8h-348.1c-31.2,0-56.7-25.5-56.7-56.7v-9.9c0-31.2,25.5-56.7,56.7-56.7h348.1
	c31.2,0,56.7,25.5,56.7,56.7v9.9C2123,502.3,2097.5,527.8,2066.3,527.8z"/>
<linearGradient id="SVGID_9_" gradientUnits="userSpaceOnUse" x1="1661.5363" y1="645.1385" x2="2123.0298" y2="645.1385">
	<stop  offset="0" style="stop-color:#FA2F12"/>
	<stop  offset="1" style="stop-color:#FA2F31"/>
</linearGradient>
<path class="st9" d="M2066.3,706.8h-348.1c-31.2,0-56.7-25.5-56.7-56.7v-9.9c0-31.2,25.5-56.7,56.7-56.7h348.1
	c31.2,0,56.7,25.5,56.7,56.7v9.9C2123,681.3,2097.5,706.8,2066.3,706.8z"/>
<linearGradient id="SVGID_10_" gradientUnits="userSpaceOnUse" x1="1661.5363" y1="824.1662" x2="2123.0298" y2="824.1662">
	<stop  offset="0" style="stop-color:#FCEE21"/>
	<stop  offset="1" style="stop-color:#F8C51C"/>
</linearGradient>
<path class="st10" d="M2066.3,885.8h-348.1c-31.2,0-56.7-25.5-56.7-56.7v-9.9c0-31.2,25.5-56.7,56.7-56.7h348.1
	c31.2,0,56.7,25.5,56.7,56.7v9.9C2123,860.3,2097.5,885.8,2066.3,885.8z"/>
<linearGradient id="SVGID_11_" gradientUnits="userSpaceOnUse" x1="1661.5363" y1="1182.2216" x2="2123.0298" y2="1182.2216">
	<stop  offset="0" style="stop-color:#E6E6E6"/>
	<stop  offset="1" style="stop-color:#ECEDEF"/>
</linearGradient>
<path class="st11" d="M2066.3,1243.9h-348.1c-31.2,0-56.7-25.5-56.7-56.7v-9.9c0-31.2,25.5-56.7,56.7-56.7h348.1
	c31.2,0,56.7,25.5,56.7,56.7v9.9C2123,1218.4,2097.5,1243.9,2066.3,1243.9z"/>
<linearGradient id="SVGID_12_" gradientUnits="userSpaceOnUse" x1="1661.5363" y1="1003.1939" x2="2123.0298" y2="1003.1939">
	<stop  offset="0" style="stop-color:#0071BC"/>
	<stop  offset="1" style="stop-color:#04A9F5"/>
</linearGradient>
<path class="st12" d="M2066.3,1064.9h-348.1c-31.2,0-56.7-25.5-56.7-56.7v-9.9c0-31.2,25.5-56.7,56.7-56.7h348.1
	c31.2,0,56.7,25.5,56.7,56.7v9.9C2123,1039.3,2097.5,1064.9,2066.3,1064.9z"/>
<path class="st13" d="M1327.3,348.7H889.8c-6.6,0-12-5.4-12-12v-99.3c0-6.6,5.4-12,12-12h437.5c6.6,0,12,5.4,12,12v99.3
	C1339.3,343.3,1333.9,348.7,1327.3,348.7z"/>
<path class="st14" d="M1327.3,527.8H889.8c-6.6,0-12-5.4-12-12v-99.3c0-6.6,5.4-12,12-12h437.5c6.6,0,12,5.4,12,12v99.3
	C1339.3,522.4,1333.9,527.8,1327.3,527.8z"/>
<path class="st15" d="M1327.3,706.8H889.8c-6.6,0-12-5.4-12-12v-99.3c0-6.6,5.4-12,12-12h437.5c6.6,0,12,5.4,12,12v99.3
	C1339.3,701.4,1333.9,706.8,1327.3,706.8z"/>
<path class="st16" d="M1327.3,885.8H889.8c-6.6,0-12-5.4-12-12v-99.3c0-6.6,5.4-12,12-12h437.5c6.6,0,12,5.4,12,12v99.3
	C1339.3,880.4,1333.9,885.8,1327.3,885.8z"/>
<path class="st17" d="M1327.3,1064.9H889.8c-6.6,0-12-5.4-12-12v-99.3c0-6.6,5.4-12,12-12h437.5c6.6,0,12,5.4,12,12v99.3
	C1339.3,1059.5,1333.9,1064.9,1327.3,1064.9z"/>
<path class="st18" d="M1327.3,1243.9H889.8c-6.6,0-12-5.4-12-12v-99.3c0-6.6,5.4-12,12-12h437.5c6.6,0,12,5.4,12,12v99.3
	C1339.3,1238.5,1333.9,1243.9,1327.3,1243.9z"/>
<g>
	<rect class="st19" width="2267.7" height="101.4"/>
	<circle class="st20" cx="64" cy="50.7" r="19.7"/>
	<circle class="st20" cx="132.1" cy="50.7" r="19.7"/>
	<circle class="st20" cx="195.5" cy="50.7" r="19.7"/>
</g>
</svg>
