<?xml version="1.0" encoding="utf-8"?>
<!-- Generator: Adobe Illustrator 21.0.0, SVG Export Plug-In . SVG Version: 6.00 Build 0)  -->
<svg version="1.1" id="Layer_1" xmlns="http://www.w3.org/2000/svg" xmlns:xlink="http://www.w3.org/1999/xlink" x="0px" y="0px"
	 viewBox="0 0 2267.7 1602.6" style="enable-background:new 0 0 2267.7 1602.6;" xml:space="preserve">
<style type="text/css">
	.st0{fill:#FFFFFF;}
	.st1{fill:#E8E8E8;}
	.st2{fill:#CECECE;}
	.st3{fill:none;stroke:#FFFFFF;stroke-width:3;stroke-linecap:round;stroke-miterlimit:10;}
	.st4{opacity:0.5;fill:none;stroke:#FFFFFF;stroke-width:3;stroke-linecap:round;stroke-miterlimit:10;enable-background:new    ;}
	.st5{opacity:0.4;fill:#1DE9B6;}
	.st6{fill:#1DE9B6;}
	.st7{opacity:0.4;fill:#1DC5E9;}
	.st8{fill:#1DC5E9;}
	.st9{opacity:0.4;fill:#899FD4;}
	.st10{fill:#A389D4;}
	.st11{fill:#899FD4;}
	.st12{opacity:0.4;fill:#FA2F31;}
	.st13{fill:#FA2F31;}
	.st14{opacity:0.4;fill:#FA5457;}
	.st15{fill:#FA5457;}
	.st16{opacity:0.4;fill:#04A9F5;}
	.st17{fill:#04A9F5;}
	.st18{opacity:0.4;fill:#049DF5;}
	.st19{fill:#049DF5;}
	.st20{opacity:0.4;fill:#F8C51C;}
	.st21{fill:#F8C51C;}
	.st22{opacity:0.4;fill:#F8AB1C;}
	.st23{fill:#F8AB1C;}
</style>
<rect class="st0" width="2267.7" height="1500"/>
<g>
	<rect class="st1" width="2267.7" height="101.4"/>
	<circle class="st2" cx="64" cy="50.7" r="19.7"/>
	<circle class="st2" cx="132.1" cy="50.7" r="19.7"/>
	<circle class="st2" cx="195.5" cy="50.7" r="19.7"/>
</g>
<g>
	<line class="st3" x1="1049.3" y1="196.1" x2="1063.2" y2="211.5"/>
	<line class="st3" x1="1049.1" y1="211.3" x2="1063.3" y2="196.2"/>
</g>
<g>
	<line class="st3" x1="690.6" y1="218.6" x2="698" y2="230.1"/>
	<line class="st3" x1="690.5" y1="230" x2="698.1" y2="218.7"/>
</g>
<g>
	<path class="st4" d="M133.1,220.9c3.2-3.9,7.3-6.2,11.5-6.3c-0.7,1.2-0.3,3.2,0.5,4.3c0.9,1,2,1.3,3.2,1.4c2.4,0.2,4.8-0.2,7-1.3
		c4.3-2.1,8.8-6.5,12.9-3.9c0.9,3.3,3.9,5.1,6.2,3.8c-0.4,1.9,0.9,3.8,2.3,4.2s2.8-0.3,4.1-0.8c4-1.5,8.3-1.9,12.4-1"/>
	<path class="st4" d="M212.3,224c3.5-2.1,6.9-4.2,10.4-6.4c1.8-1.1,3.9-2.3,5.8-1.5c1.9,0.7,3.4,4.3,2.1,6.5c1.7,2.1,4.2-0.5,6.2-2
		c2.8-2.1,6-2,9.2-1.8c11.9,0.5,23.9,1,35.8,1.5"/>
	<path class="st4" d="M296.5,228.4c13.2-5.2,27.3-3.5,41-2.9c12.6,0.5,25.3,0.1,37.9-1.4c2.6-0.3,5.1-0.6,7.7-1
		c0.9-0.1,1.8-0.2,2.6-0.4c5.6-0.7,11.2-1.5,16.8-1.9c15-1.2,30-0.3,44.9,2.8"/>
	<path class="st4" d="M464.8,223.2c1.8,0.1,3.6,0.3,5.4,0.4c-1.4,2.1,0.2,5.8,2.1,6.3c2,0.5,4-0.9,5.8-2c6.2-3.9,13.1-5.3,19.9-4.2
		c2.2,0.4,4.3,1,6.4,1.6"/>
	<path class="st4" d="M520.3,227.7c3.1-2.4,6.3,2.4,9.6,4.3c4.7,2.8,10-0.7,15-2.6c10.6-4.1,22-0.8,32.7-4.5
		c6.4-2.2,13-6.8,19.1-3.3c-0.5,3.3,2.8,4.8,5.2,4.8c9.5,0,19.1,0.1,28.6,0.1"/>
	<path class="st4" d="M71.1,254.9c2.6-0.4,5.2-0.8,7.7-1.2c-1.2,3.3,2,6.9,4.6,6.2s4.6-3.6,6.9-5.4c4.2-3.3,9.3-2.8,14-2.2
		c5.5,0.7,11,1.3,16.5,2c1.2,0.1,2.5,0.3,3.6,1.2c0.8,0.6,1.3,1.6,2,2.3c5.2,5.5,12.2-2.2,18.7-2.8c8.3-0.7,16.4,10.5,24,5.8"/>
	<path class="st4" d="M190.3,261.2c5.4-1,10.7-2.1,16.1-3.1c2-0.4,4.2-0.7,6,0.6s2.9,5,1.5,7.1c25.2,0.5,50.4,1,75.7,1.4
		c9.4,0.2,19.5,0,27.1-7.8"/>
	<path class="st4" d="M340.3,261.7c4.6-0.7,9.1-1.5,13.7-2.2c1.3-0.2,2.6-0.4,3.7,0.4c1.2,0.9,1.9,2.9,3,4c1.6,1.7,3.9,1.5,5.9,1.1
		c3.7-0.6,7.5-1.2,11.2-1.8c8.5-1.3,17.1-2.6,25.4-0.4c2.7,0.7,5.6,1.8,8.2,0.6c1-0.5,2-1.3,3.1-1.5c1.8-0.3,3.4,1.2,5,2.3
		c3.7,2.7,8,3.8,12.2,3.2c8.5-1.3,17.6-9.5,24.8-3.1"/>
	<g>
		<path class="st4" d="M69.1,216.3c1.3-2.5,3.9-2.2,6.1-1.5c4.1,1.3,8.6,3,12.4,0.5c1.7-1.1,3.2-2.9,5-3.2c1-0.2,1.9,0.1,2.9,0.4
			c7.1,2.1,14.2,4.1,21.3,6.2"/>
		<path class="st4" d="M491,268c7.2,0,14.5-0.1,21.7-0.1c2.2,0,4.3,0,6.5,0c4.4,0,8.8,0,13.2-0.1c18.1-0.1,36.2-0.2,54.3-0.2
			c2,0,4.1,0,6,1.1c0.3-5.7,6-6.4,9.9-5.5c5.8,1.3,11.5,2.6,17.3,4"/>
	</g>
</g>
<circle class="st5" cx="253.5" cy="351.8" r="86.1"/>
<circle class="st6" cx="253.5" cy="351.8" r="70"/>
<circle class="st7" cx="253.5" cy="609.4" r="86.1"/>
<circle class="st8" cx="253.5" cy="609.4" r="70"/>
<circle class="st9" cx="253.5" cy="867" r="86.1"/>
<circle class="st10" cx="253.5" cy="867" r="70"/>
<circle class="st9" cx="253.5" cy="1140.6" r="86.1"/>
<circle class="st11" cx="253.5" cy="1140.6" r="70"/>
<circle class="st12" cx="619.9" cy="351.8" r="86.1"/>
<circle class="st13" cx="619.9" cy="351.8" r="70"/>
<circle class="st14" cx="619.9" cy="609.4" r="86.1"/>
<circle class="st15" cx="619.9" cy="609.4" r="70"/>
<circle class="st16" cx="619.9" cy="867" r="86.1"/>
<circle class="st17" cx="619.9" cy="867" r="70"/>
<circle class="st18" cx="619.9" cy="1140.6" r="86.1"/>
<circle class="st19" cx="619.9" cy="1140.6" r="70"/>
<circle class="st20" cx="977.2" cy="351.8" r="86.1"/>
<circle class="st21" cx="977.2" cy="351.8" r="70"/>
<circle class="st22" cx="977.2" cy="609.4" r="86.1"/>
<circle class="st23" cx="977.2" cy="609.4" r="70"/>
</svg>
