<?xml version="1.0" encoding="utf-8"?>
<!-- Generator: Adobe Illustrator 21.0.0, SVG Export Plug-In . SVG Version: 6.00 Build 0)  -->
<svg version="1.1" id="Layer_1" xmlns="http://www.w3.org/2000/svg" xmlns:xlink="http://www.w3.org/1999/xlink" x="0px" y="0px"
	 viewBox="0 0 2267.7 1602.6" style="enable-background:new 0 0 2267.7 1602.6;" xml:space="preserve">
<style type="text/css">
	.st0{fill:#FFFFFF;}
	.st1{fill:#E8E8E8;}
	.st2{fill:#CECECE;}
	.st3{fill:none;stroke:#FFFFFF;stroke-width:3;stroke-linecap:round;stroke-miterlimit:10;}
	.st4{fill:none;stroke:#FA5457;stroke-width:6;stroke-miterlimit:10;}
	.st5{fill:#E8E8E8;stroke:#FA5457;stroke-width:6;stroke-linecap:round;stroke-miterlimit:10;}
	.st6{fill:none;stroke:#E8E8E8;stroke-width:7;stroke-miterlimit:10;}
	.st7{fill:#A389D4;stroke:#A389D4;stroke-width:7;stroke-miterlimit:10;}
	.st8{fill:none;stroke:#1DE9B6;stroke-width:6;stroke-miterlimit:10;}
	.st9{fill:#1DE9B6;stroke:#1DE9B6;stroke-width:7;stroke-miterlimit:10;}
	.st10{fill:none;stroke:#1DE9B6;stroke-width:6;stroke-linecap:round;stroke-miterlimit:10;}
</style>
<rect class="st0" width="2267.7" height="1500"/>
<g>
	<rect class="st1" width="2267.7" height="101.4"/>
	<circle class="st2" cx="64" cy="50.7" r="19.7"/>
	<circle class="st2" cx="132.1" cy="50.7" r="19.7"/>
	<circle class="st2" cx="195.5" cy="50.7" r="19.7"/>
</g>
<g>
	<line class="st3" x1="1049.3" y1="196.1" x2="1063.2" y2="211.5"/>
	<line class="st3" x1="1049.1" y1="211.3" x2="1063.3" y2="196.2"/>
</g>
<g>
	<line class="st3" x1="690.6" y1="218.6" x2="698" y2="230.1"/>
	<line class="st3" x1="690.5" y1="230" x2="698.1" y2="218.7"/>
</g>
<g id="_x36_S9oXH_1_">
	
		<image style="overflow:visible;" width="1024" height="1024" id="_x36_S9oXH" xlink:href="147F9EB4A99D268A.jpg"  transform="matrix(1.6406 0 0 1.6406 -1905.7914 -123.4389)">
	</image>
</g>
<path class="st4" d="M464.3,397.5H111.4c-7,0-12.7-5.7-12.7-12.7v-56.7c0-7,5.7-12.7,12.7-12.7h352.8c7,0,12.7,5.7,12.7,12.7v56.7
	C477,391.8,471.3,397.5,464.3,397.5z"/>
<rect x="98.7" y="250" class="st1" width="189.1" height="40.1"/>
<g>
	<line class="st5" x1="429" y1="372.4" x2="460.9" y2="340.5"/>
	<polyline class="st5" points="429,340.5 445,356.4 459.6,371 	"/>
</g>
<path class="st4" d="M464.3,616H111.4c-7,0-12.7-5.7-12.7-12.7v-56.7c0-7,5.7-12.7,12.7-12.7h352.8c7,0,12.7,5.7,12.7,12.7v56.7
	C477,610.3,471.3,616,464.3,616z"/>
<rect x="98.7" y="468.6" class="st1" width="189.1" height="40.1"/>
<g>
	<line class="st5" x1="429" y1="590.9" x2="460.9" y2="559"/>
	<polyline class="st5" points="429,559 445,574.9 459.6,589.6 	"/>
</g>
<path class="st4" d="M967.9,397.5H615c-7,0-12.7-5.7-12.7-12.7v-56.7c0-7,5.7-12.7,12.7-12.7h352.8c7,0,12.7,5.7,12.7,12.7v56.7
	C980.6,391.8,974.9,397.5,967.9,397.5z"/>
<rect x="602.3" y="250" class="st1" width="189.1" height="40.1"/>
<g>
	<line class="st5" x1="932.6" y1="372.4" x2="964.5" y2="340.5"/>
	<polyline class="st5" points="932.6,340.5 948.6,356.4 963.2,371 	"/>
</g>
<path class="st4" d="M967.9,616H615c-7,0-12.7-5.7-12.7-12.7v-56.7c0-7,5.7-12.7,12.7-12.7h352.8c7,0,12.7,5.7,12.7,12.7v56.7
	C980.6,610.3,974.9,616,967.9,616z"/>
<rect x="602.3" y="468.6" class="st1" width="189.1" height="40.1"/>
<rect x="98.7" y="716.5" class="st6" width="881.9" height="424.9"/>
<g>
	<line class="st5" x1="932.6" y1="590.9" x2="964.5" y2="559"/>
	<polyline class="st5" points="932.6,559 948.6,574.9 963.2,589.6 	"/>
</g>
<path class="st7" d="M939.5,1287.1H706.6c-22.7,0-41.1-18.4-41.1-41.1v0c0-22.7,18.4-41.1,41.1-41.1h232.9
	c22.7,0,41.1,18.4,41.1,41.1v0C980.6,1268.8,962.2,1287.1,939.5,1287.1z"/>
<g>
	<line class="st3" x1="1782.1" y1="218.6" x2="1789.5" y2="230.1"/>
	<line class="st3" x1="1782" y1="230" x2="1789.6" y2="218.7"/>
</g>
<path class="st8" d="M1555.8,397.5H1203c-7,0-12.7-5.7-12.7-12.7v-56.7c0-7,5.7-12.7,12.7-12.7h352.8c7,0,12.7,5.7,12.7,12.7v56.7
	C1568.5,391.8,1562.8,397.5,1555.8,397.5z"/>
<rect x="1190.2" y="250" class="st1" width="189.1" height="40.1"/>
<path class="st8" d="M1555.8,616H1203c-7,0-12.7-5.7-12.7-12.7v-56.7c0-7,5.7-12.7,12.7-12.7h352.8c7,0,12.7,5.7,12.7,12.7v56.7
	C1568.5,610.3,1562.8,616,1555.8,616z"/>
<rect x="1190.2" y="468.6" class="st1" width="189.1" height="40.1"/>
<path class="st8" d="M2059.4,397.5h-352.8c-7,0-12.7-5.7-12.7-12.7v-56.7c0-7,5.7-12.7,12.7-12.7h352.8c7,0,12.7,5.7,12.7,12.7v56.7
	C2072.1,391.8,2066.4,397.5,2059.4,397.5z"/>
<rect x="1693.8" y="250" class="st1" width="189.1" height="40.1"/>
<path class="st8" d="M2059.4,616h-352.8c-7,0-12.7-5.7-12.7-12.7v-56.7c0-7,5.7-12.7,12.7-12.7h352.8c7,0,12.7,5.7,12.7,12.7v56.7
	C2072.1,610.3,2066.4,616,2059.4,616z"/>
<rect x="1693.8" y="468.6" class="st1" width="189.1" height="40.1"/>
<rect x="1190.2" y="716.5" class="st6" width="881.9" height="424.9"/>
<path class="st9" d="M2031,1287.1h-232.9c-22.7,0-41.1-18.4-41.1-41.1v0c0-22.7,18.4-41.1,41.1-41.1H2031
	c22.7,0,41.1,18.4,41.1,41.1v0C2072.1,1268.8,2053.7,1287.1,2031,1287.1z"/>
<polyline class="st10" points="1506.6,351.2 1522.9,375 1549.7,337.9 "/>
<polyline class="st10" points="1506.6,569.8 1522.9,593.5 1549.7,556.4 "/>
<polyline class="st10" points="2006.2,569.8 2022.5,593.5 2049.2,556.4 "/>
<polyline class="st10" points="2006.2,351.2 2022.5,375 2049.2,337.9 "/>
</svg>
