<?xml version="1.0" encoding="utf-8"?>
<!-- Generator: Adobe Illustrator 21.0.0, SVG Export Plug-In . SVG Version: 6.00 Build 0)  -->
<svg version="1.1" id="Layer_1" xmlns="http://www.w3.org/2000/svg" xmlns:xlink="http://www.w3.org/1999/xlink" x="0px" y="0px"
	 viewBox="0 0 2267.7 1602.6" style="enable-background:new 0 0 2267.7 1602.6;" xml:space="preserve">
<style type="text/css">
	.st0{fill:#FFFFFF;}
	.st1{fill:#E8E8E8;}
	.st2{fill:#CECECE;}
	.st3{fill:none;stroke:#D6D6D6;stroke-width:8;stroke-miterlimit:10;}
	.st4{fill:#D6D6D6;}
	.st5{fill:none;stroke:#1DE9B6;stroke-width:8;stroke-miterlimit:10;}
	.st6{fill:none;stroke:#899FD4;stroke-width:8;stroke-miterlimit:10;}
	.st7{fill:none;stroke:#04A9F5;stroke-width:8;stroke-miterlimit:10;}
	.st8{fill:none;stroke:#A389D4;stroke-width:8;stroke-miterlimit:10;}
	.st9{fill:none;stroke:#1DC5E9;stroke-width:8;stroke-miterlimit:10;}
	.st10{fill:#D6D6D6;stroke:#D6D6D6;stroke-width:4;stroke-linecap:round;stroke-miterlimit:10;}
</style>
<rect class="st0" width="2267.7" height="1500"/>
<g>
	<rect class="st1" width="2267.7" height="101.4"/>
	<circle class="st2" cx="64" cy="50.7" r="19.7"/>
	<circle class="st2" cx="132.1" cy="50.7" r="19.7"/>
	<circle class="st2" cx="195.5" cy="50.7" r="19.7"/>
</g>
<line class="st3" x1="190.7" y1="940.6" x2="390.6" y2="670"/>
<line class="st3" x1="432.7" y1="665.3" x2="596.8" y2="839.1"/>
<line class="st3" x1="642.2" y1="839.1" x2="797.5" y2="601"/>
<path class="st1" d="M1233.5,550.7v-72c0-8.3,6.7-15,15-15h461.5c8.3,0,15,6.7,15,15v72c0,8.3-6.7,15-15,15h-461.5
	C1240.3,565.7,1233.5,559,1233.5,550.7z"/>
<path class="st1" d="M1233.5,689v-72c0-8.3,6.7-15,15-15h215.8c8.3,0,15,6.7,15,15v72c0,8.3-6.7,15-15,15h-215.8
	C1240.3,704,1233.5,697.3,1233.5,689z"/>
<path class="st1" d="M1233.5,838.5v-72c0-8.3,6.7-15,15-15h606.5c8.3,0,15,6.7,15,15v72c0,8.3-6.7,15-15,15h-606.5
	C1240.3,853.5,1233.5,846.8,1233.5,838.5z"/>
<path class="st1" d="M1233.5,988v-72c0-8.3,6.7-15,15-15h353.7c8.3,0,15,6.7,15,15v72c0,8.3-6.7,15-15,15h-353.7
	C1240.3,1003,1233.5,996.3,1233.5,988z"/>
<path class="st1" d="M1233.5,1131.9v-72c0-8.3,6.7-15,15-15H1955c8.3,0,15,6.7,15,15v72c0,8.3-6.7,15-15,15h-706.5
	C1240.3,1146.9,1233.5,1140.2,1233.5,1131.9z"/>
<path class="st3" d="M830.7,594.6C887.1,699.3,943.5,804,999.8,908.7"/>
<g>
	<g>
		<path class="st4" d="M70.2,475.1l64.4-0.5l64.4-0.4l128.7-0.6c42.9-0.2,85.8-0.2,128.7-0.3l128.7-0.2l128.7,0.2l64.4,0.1l32.2,0.1
			l32.2,0.1l128.7,0.6l64.4,0.5l64.4,0.5l-64.4,0.5l-64.4,0.5l-128.7,0.6l-32.2,0.1l-32.2,0.1l-64.4,0.1l-128.7,0.2l-128.7-0.2
			c-42.9-0.1-85.8,0-128.7-0.3l-128.7-0.6l-64.4-0.4L70.2,475.1z"/>
	</g>
	<g>
		<path class="st4" d="M70.2,597.8l64.4-0.5l64.4-0.4l128.7-0.6c42.9-0.2,85.8-0.2,128.7-0.3l128.7-0.2l128.7,0.2l64.4,0.1l32.2,0.1
			l32.2,0.1l128.7,0.6l64.4,0.5l64.4,0.5l-64.4,0.5l-64.4,0.5l-128.7,0.6l-32.2,0.1l-32.2,0.1l-64.4,0.1l-128.7,0.2l-128.7-0.2
			c-42.9-0.1-85.8,0-128.7-0.3l-128.7-0.6l-64.4-0.4L70.2,597.8z"/>
	</g>
	<g>
		<path class="st4" d="M70.2,720.6l64.4-0.5l64.4-0.4l128.7-0.6c42.9-0.2,85.8-0.2,128.7-0.3l128.7-0.2l128.7,0.2l64.4,0.1l32.2,0.1
			l32.2,0.1l128.7,0.6l64.4,0.5l64.4,0.5l-64.4,0.5l-64.4,0.5l-128.7,0.6l-32.2,0.1l-32.2,0.1l-64.4,0.1l-128.7,0.2l-128.7-0.2
			c-42.9-0.1-85.8,0-128.7-0.3l-128.7-0.6l-64.4-0.4L70.2,720.6z"/>
	</g>
	<g>
		<path class="st4" d="M70.2,843.3l64.4-0.5l64.4-0.4l128.7-0.6c42.9-0.2,85.8-0.2,128.7-0.3l128.7-0.2l128.7,0.2l64.4,0.1l32.2,0.1
			l32.2,0.1l128.7,0.6l64.4,0.5l64.4,0.5l-64.4,0.5l-64.4,0.5l-128.7,0.6l-32.2,0.1l-32.2,0.1l-64.4,0.1l-128.7,0.2l-128.7-0.2
			c-42.9-0.1-85.8,0-128.7-0.3l-128.7-0.6l-64.4-0.4L70.2,843.3z"/>
	</g>
	<g>
		<path class="st4" d="M70.2,966.1l64.4-0.5l64.4-0.4l128.7-0.6c42.9-0.2,85.8-0.2,128.7-0.3l128.7-0.2l128.7,0.2l64.4,0.1l32.2,0.1
			l32.2,0.1l128.7,0.6l64.4,0.5l64.4,0.5l-64.4,0.5l-64.4,0.5l-128.7,0.6l-32.2,0.1l-32.2,0.1l-64.4,0.1l-128.7,0.2l-128.7-0.2
			c-42.9-0.1-85.8,0-128.7-0.3l-128.7-0.6l-64.4-0.4L70.2,966.1z"/>
	</g>
	<g>
		<path class="st4" d="M70.2,1088.8l64.4-0.5l64.4-0.4l128.7-0.6c42.9-0.2,85.8-0.2,128.7-0.3l128.7-0.2l128.7,0.2l64.4,0.1
			l32.2,0.1l32.2,0.1l128.7,0.6l64.4,0.5l64.4,0.5l-64.4,0.5l-64.4,0.5l-128.7,0.6l-32.2,0.1l-32.2,0.1l-64.4,0.1l-128.7,0.2
			l-128.7-0.2c-42.9-0.1-85.8,0-128.7-0.3l-128.7-0.6l-64.4-0.4L70.2,1088.8z"/>
	</g>
	<g>
		<path class="st4" d="M70.2,1211.6l64.4-0.5l64.4-0.4l128.7-0.6c42.9-0.2,85.8-0.2,128.7-0.3l128.7-0.2l128.7,0.2l64.4,0.1
			l32.2,0.1l32.2,0.1l128.7,0.6l64.4,0.5l64.4,0.5l-64.4,0.5l-64.4,0.5l-128.7,0.6l-32.2,0.1l-32.2,0.1l-64.4,0.1l-128.7,0.2
			l-128.7-0.2c-42.9-0.1-85.8,0-128.7-0.3l-128.7-0.6l-64.4-0.4L70.2,1211.6z"/>
	</g>
</g>
<circle class="st5" cx="175.4" cy="964.9" r="28.7"/>
<circle class="st6" cx="409.5" cy="648.3" r="28.7"/>
<circle class="st7" cx="619.5" cy="856.6" r="28.7"/>
<circle class="st8" cx="1009.2" cy="931.1" r="28.7"/>
<circle class="st9" cx="809.7" cy="575" r="28.7"/>
<rect x="78" y="1244.2" class="st5" width="33.9" height="33.9"/>
<rect x="138.8" y="1249.9" class="st10" width="151.9" height="28.3"/>
<rect x="328.7" y="1244.2" class="st6" width="33.9" height="33.9"/>
<rect x="389.5" y="1249.9" class="st10" width="151.9" height="28.3"/>
<rect x="580.5" y="1244.2" class="st7" width="33.9" height="33.9"/>
<rect x="641.3" y="1249.9" class="st10" width="151.9" height="28.3"/>
<rect x="830.7" y="1244.2" class="st9" width="33.9" height="33.9"/>
<rect x="891.5" y="1249.9" class="st10" width="151.9" height="28.3"/>
<circle class="st1" cx="1789.5" cy="515.5" r="24.3"/>
<rect x="1833.2" y="500.1" class="st1" width="154" height="28.1"/>
<circle class="st1" cx="1530.6" cy="653" r="24.3"/>
<rect x="1574.2" y="637.6" class="st1" width="154" height="28.1"/>
<circle class="st1" cx="1917.7" cy="802.5" r="24.3"/>
<rect x="1961.4" y="787.1" class="st1" width="154" height="28.1"/>
<circle class="st1" cx="1667.1" cy="952" r="24.3"/>
<rect x="1710.8" y="936.6" class="st1" width="154" height="28.1"/>
<circle class="st1" cx="2015.4" cy="1095.9" r="24.3"/>
<rect x="2059.1" y="1080.5" class="st1" width="154" height="28.1"/>
</svg>
