<?xml version="1.0" encoding="utf-8"?>
<!-- Generator: Adobe Illustrator 21.0.0, SVG Export Plug-In . SVG Version: 6.00 Build 0)  -->
<svg version="1.1" id="Layer_1" xmlns="http://www.w3.org/2000/svg" xmlns:xlink="http://www.w3.org/1999/xlink" x="0px" y="0px"
	 viewBox="0 0 2267.7 1602.6" style="enable-background:new 0 0 2267.7 1602.6;" xml:space="preserve">
<style type="text/css">
	.st0{fill:#FFFFFF;stroke:#000000;stroke-miterlimit:10;}
	.st1{fill:none;stroke:#A389D4;stroke-width:5;stroke-miterlimit:10;}
	.st2{fill:#899FD4;}
	.st3{fill:#FFFFFF;}
	.st4{fill:#E8E8E8;}
	.st5{fill:#CECECE;}
</style>
<rect y="0" class="st0" width="2267.7" height="1602.6"/>
<path class="st1" d="M1001.4,289.5H637.5c-15.3,0-27.8-12.4-27.8-27.8v-28.8c0-15.3,12.4-27.8,27.8-27.8h363.9
	c15.3,0,27.8,12.4,27.8,27.8v28.8C1029.2,277,1016.7,289.5,1001.4,289.5z"/>
<rect x="176.8" y="223.1" class="st2" width="380.8" height="48.4"/>
<path class="st1" d="M1001.4,409.4H637.5c-15.3,0-27.8-12.4-27.8-27.8v-28.8c0-15.3,12.4-27.8,27.8-27.8h363.9
	c15.3,0,27.8,12.4,27.8,27.8v28.8C1029.2,397,1016.7,409.4,1001.4,409.4z"/>
<rect x="176.8" y="343" class="st2" width="380.8" height="48.4"/>
<path class="st1" d="M1001.4,529.4H637.5c-15.3,0-27.8-12.4-27.8-27.8v-28.8c0-15.3,12.4-27.8,27.8-27.8h363.9
	c15.3,0,27.8,12.4,27.8,27.8v28.8C1029.2,516.9,1016.7,529.4,1001.4,529.4z"/>
<rect x="176.8" y="463" class="st2" width="380.8" height="48.4"/>
<path class="st1" d="M1001.4,649.3H637.5c-15.3,0-27.8-12.4-27.8-27.8v-28.8c0-15.3,12.4-27.8,27.8-27.8h363.9
	c15.3,0,27.8,12.4,27.8,27.8v28.8C1029.2,636.9,1016.7,649.3,1001.4,649.3z"/>
<rect x="176.8" y="582.9" class="st2" width="380.8" height="48.4"/>
<path class="st1" d="M1001.4,769.3H637.5c-15.3,0-27.8-12.4-27.8-27.8v-28.8c0-15.3,12.4-27.8,27.8-27.8h363.9
	c15.3,0,27.8,12.4,27.8,27.8v28.8C1029.2,756.9,1016.7,769.3,1001.4,769.3z"/>
<rect x="176.8" y="702.9" class="st2" width="380.8" height="48.4"/>
<path class="st1" d="M1001.4,889.2H637.5c-15.3,0-27.8-12.4-27.8-27.8v-28.8c0-15.3,12.4-27.8,27.8-27.8h363.9
	c15.3,0,27.8,12.4,27.8,27.8v28.8C1029.2,876.8,1016.7,889.2,1001.4,889.2z"/>
<path class="st1" d="M636.5,1154H272.6c-15.3,0-27.8-12.4-27.8-27.8v-28.8c0-15.3,12.4-27.8,27.8-27.8h363.9
	c15.3,0,27.8,12.4,27.8,27.8v28.8C664.3,1141.6,651.9,1154,636.5,1154z"/>
<rect x="176.8" y="822.9" class="st2" width="380.8" height="48.4"/>
<rect x="244.9" y="982.8" class="st2" width="380.8" height="48.4"/>
<path class="st1" d="M1124.5,1154H760.6c-15.3,0-27.8-12.4-27.8-27.8v-28.8c0-15.3,12.4-27.8,27.8-27.8h363.9
	c15.3,0,27.8,12.4,27.8,27.8v28.8C1152.2,1141.6,1139.8,1154,1124.5,1154z"/>
<rect x="732.8" y="982.8" class="st2" width="380.8" height="48.4"/>
<path class="st1" d="M1612.4,1154h-363.9c-15.3,0-27.8-12.4-27.8-27.8v-28.8c0-15.3,12.4-27.8,27.8-27.8h363.9
	c15.3,0,27.8,12.4,27.8,27.8v28.8C1640.2,1141.6,1627.8,1154,1612.4,1154z"/>
<rect x="1220.8" y="982.8" class="st2" width="380.8" height="48.4"/>
<path class="st1" d="M2100.4,1154h-363.9c-15.3,0-27.8-12.4-27.8-27.8v-28.8c0-15.3,12.4-27.8,27.8-27.8h363.9
	c15.3,0,27.8,12.4,27.8,27.8v28.8C2128.2,1141.6,2115.7,1154,2100.4,1154z"/>
<rect x="1708.7" y="982.8" class="st2" width="380.8" height="48.4"/>
<path class="st1" d="M636.5,1395.9H272.6c-15.3,0-27.8-12.4-27.8-27.8v-28.8c0-15.3,12.4-27.8,27.8-27.8h363.9
	c15.3,0,27.8,12.4,27.8,27.8v28.8C664.3,1383.5,651.9,1395.9,636.5,1395.9z"/>
<rect x="244.9" y="1224.6" class="st2" width="380.8" height="48.4"/>
<path class="st1" d="M1124.5,1395.9H760.6c-15.3,0-27.8-12.4-27.8-27.8v-28.8c0-15.3,12.4-27.8,27.8-27.8h363.9
	c15.3,0,27.8,12.4,27.8,27.8v28.8C1152.2,1383.5,1139.8,1395.9,1124.5,1395.9z"/>
<rect x="732.8" y="1224.6" class="st2" width="380.8" height="48.4"/>
<path class="st1" d="M1612.4,1395.9h-363.9c-15.3,0-27.8-12.4-27.8-27.8v-28.8c0-15.3,12.4-27.8,27.8-27.8h363.9
	c15.3,0,27.8,12.4,27.8,27.8v28.8C1640.2,1383.5,1627.8,1395.9,1612.4,1395.9z"/>
<rect x="1220.8" y="1224.6" class="st2" width="380.8" height="48.4"/>
<path class="st1" d="M2100.4,1395.9h-363.9c-15.3,0-27.8-12.4-27.8-27.8v-28.8c0-15.3,12.4-27.8,27.8-27.8h363.9
	c15.3,0,27.8,12.4,27.8,27.8v28.8C2128.2,1383.5,2115.7,1395.9,2100.4,1395.9z"/>
<rect x="1708.7" y="1224.6" class="st2" width="380.8" height="48.4"/>
<g>
	<g>
		<rect x="1084.2" y="219.4" class="st2" width="59.9" height="59.9"/>
		<circle class="st3" cx="1114.1" cy="249.3" r="14.5"/>
	</g>
	<g>
		<rect x="1084.2" y="319.3" class="st2" width="59.9" height="59.9"/>
		<circle class="st3" cx="1114.1" cy="349.3" r="14.5"/>
	</g>
	<g>
		<rect x="1084.2" y="419.3" class="st2" width="59.9" height="59.9"/>
		<circle class="st3" cx="1114.1" cy="449.2" r="14.5"/>
	</g>
	<g>
		<rect x="1084.2" y="519.2" class="st2" width="59.9" height="59.9"/>
		<circle class="st3" cx="1114.1" cy="549.2" r="14.5"/>
	</g>
	<g>
		<rect x="1084.2" y="619.2" class="st2" width="59.9" height="59.9"/>
		<circle class="st3" cx="1114.1" cy="649.1" r="14.5"/>
	</g>
	<g>
		<rect x="1084.2" y="719.2" class="st2" width="59.9" height="59.9"/>
		<circle class="st3" cx="1114.1" cy="749.1" r="14.5"/>
	</g>
	<g>
		<rect x="1084.2" y="819.1" class="st2" width="59.9" height="59.9"/>
		<circle class="st3" cx="1114.1" cy="849.1" r="14.5"/>
	</g>
</g>
<path class="st1" d="M2045.3,289.5h-363.9c-15.3,0-27.8-12.4-27.8-27.8v-28.8c0-15.3,12.4-27.8,27.8-27.8h363.9
	c15.3,0,27.8,12.4,27.8,27.8v28.8C2073.1,277,2060.7,289.5,2045.3,289.5z"/>
<rect x="1220.8" y="223.1" class="st2" width="380.8" height="48.4"/>
<path class="st1" d="M2045.3,409.4h-363.9c-15.3,0-27.8-12.4-27.8-27.8v-28.8c0-15.3,12.4-27.8,27.8-27.8h363.9
	c15.3,0,27.8,12.4,27.8,27.8v28.8C2073.1,397,2060.7,409.4,2045.3,409.4z"/>
<rect x="1220.8" y="343" class="st2" width="380.8" height="48.4"/>
<path class="st1" d="M2045.3,529.4h-363.9c-15.3,0-27.8-12.4-27.8-27.8v-28.8c0-15.3,12.4-27.8,27.8-27.8h363.9
	c15.3,0,27.8,12.4,27.8,27.8v28.8C2073.1,516.9,2060.7,529.4,2045.3,529.4z"/>
<rect x="1220.8" y="463" class="st2" width="380.8" height="48.4"/>
<path class="st1" d="M2045.3,649.3h-363.9c-15.3,0-27.8-12.4-27.8-27.8v-28.8c0-15.3,12.4-27.8,27.8-27.8h363.9
	c15.3,0,27.8,12.4,27.8,27.8v28.8C2073.1,636.9,2060.7,649.3,2045.3,649.3z"/>
<rect x="1220.8" y="582.9" class="st2" width="380.8" height="48.4"/>
<path class="st1" d="M2045.3,769.3h-363.9c-15.3,0-27.8-12.4-27.8-27.8v-28.8c0-15.3,12.4-27.8,27.8-27.8h363.9
	c15.3,0,27.8,12.4,27.8,27.8v28.8C2073.1,756.9,2060.7,769.3,2045.3,769.3z"/>
<rect x="1220.8" y="702.9" class="st2" width="380.8" height="48.4"/>
<path class="st1" d="M2045.3,889.2h-363.9c-15.3,0-27.8-12.4-27.8-27.8v-28.8c0-15.3,12.4-27.8,27.8-27.8h363.9
	c15.3,0,27.8,12.4,27.8,27.8v28.8C2073.1,876.8,2060.7,889.2,2045.3,889.2z"/>
<rect x="1220.8" y="822.9" class="st2" width="380.8" height="48.4"/>
<g>
	<g>
		<rect x="2128.2" y="219.4" class="st2" width="59.9" height="59.9"/>
		<circle class="st3" cx="2158.1" cy="249.3" r="14.5"/>
	</g>
	<g>
		<rect x="2128.2" y="319.3" class="st2" width="59.9" height="59.9"/>
		<circle class="st3" cx="2158.1" cy="349.3" r="14.5"/>
	</g>
	<g>
		<rect x="2128.2" y="419.3" class="st2" width="59.9" height="59.9"/>
		<circle class="st3" cx="2158.1" cy="449.2" r="14.5"/>
	</g>
	<g>
		<rect x="2128.2" y="519.2" class="st2" width="59.9" height="59.9"/>
		<circle class="st3" cx="2158.1" cy="549.2" r="14.5"/>
	</g>
	<g>
		<rect x="2128.2" y="619.2" class="st2" width="59.9" height="59.9"/>
		<circle class="st3" cx="2158.1" cy="649.1" r="14.5"/>
	</g>
	<g>
		<rect x="2128.2" y="719.2" class="st2" width="59.9" height="59.9"/>
		<circle class="st3" cx="2158.1" cy="749.1" r="14.5"/>
	</g>
	<g>
		<rect x="2128.2" y="819.1" class="st2" width="59.9" height="59.9"/>
		<circle class="st3" cx="2158.1" cy="849.1" r="14.5"/>
	</g>
</g>
<polygon class="st2" points="948.5,234.8 1001.3,234.8 974.9,263.8 "/>
<polygon class="st2" points="948.5,472.7 1001.3,472.7 974.9,501.7 "/>
<polygon class="st2" points="948.5,712.6 1001.3,712.6 974.9,741.6 "/>
<polygon class="st2" points="1995.1,234.8 2047.9,234.8 2021.5,263.8 "/>
<polygon class="st2" points="1995.1,472.7 2047.9,472.7 2021.5,501.7 "/>
<polygon class="st2" points="1995.1,712.6 2047.9,712.6 2021.5,741.6 "/>
<g>
	<rect y="0" class="st4" width="2267.7" height="101.4"/>
	<circle class="st5" cx="64" cy="50.7" r="19.7"/>
	<circle class="st5" cx="132.1" cy="50.7" r="19.7"/>
	<circle class="st5" cx="195.5" cy="50.7" r="19.7"/>
</g>
</svg>
