<?xml version="1.0" encoding="utf-8"?>
<!-- Generator: Adobe Illustrator 21.0.0, SVG Export Plug-In . SVG Version: 6.00 Build 0)  -->
<svg version="1.1" id="Layer_1" xmlns="http://www.w3.org/2000/svg" xmlns:xlink="http://www.w3.org/1999/xlink" x="0px" y="0px"
	 viewBox="0 0 2267.7 1602.6" style="enable-background:new 0 0 2267.7 1602.6;" xml:space="preserve">
<style type="text/css">
	.st0{fill:#FFFFFF;}
	.st1{opacity:0.6;fill:#1DE9B6;}
	.st2{opacity:0.6;fill:#FA2F31;}
	.st3{opacity:0.6;fill:#04A9F5;}
	.st4{fill:#E8E8E8;}
	.st5{fill:#CECECE;}
	.st6{fill:none;stroke:#FFFFFF;stroke-width:3;stroke-linecap:round;stroke-miterlimit:10;}
	.st7{opacity:0.5;fill:none;stroke:#FFFFFF;stroke-width:3;stroke-linecap:round;stroke-miterlimit:10;}
	.st8{opacity:0.6;fill:#F8C51C;stroke:#ECEDEF;stroke-miterlimit:10;}
</style>
<rect class="st0" width="2267.7" height="1500"/>
<path class="st1" d="M2236.4,321.1h-587.8c-6.6,0-12-5.4-12-12V146.6c0-6.6,5.4-12,12-12h587.8c6.6,0,12,5.4,12,12v162.5
	C2248.4,315.7,2243,321.1,2236.4,321.1z"/>
<path class="st2" d="M645.7,333.6H57.9c-6.6,0-12-5.4-12-12V159.1c0-6.6,5.4-12,12-12h587.8c6.6,0,12,5.4,12,12v162.5
	C657.7,328.2,652.3,333.6,645.7,333.6z"/>
<rect y="1443.5" class="st3" width="2267.9" height="159.2"/>
<g>
	<rect class="st4" width="2267.7" height="101.4"/>
	<circle class="st5" cx="64" cy="50.7" r="19.7"/>
	<circle class="st5" cx="132.1" cy="50.7" r="19.7"/>
	<circle class="st5" cx="195.5" cy="50.7" r="19.7"/>
</g>
<g>
	<line class="st6" x1="1049.3" y1="196.1" x2="1063.2" y2="211.5"/>
	<line class="st6" x1="1049.1" y1="211.3" x2="1063.3" y2="196.2"/>
</g>
<g>
	<line class="st6" x1="690.6" y1="218.6" x2="698" y2="230.1"/>
	<line class="st6" x1="690.5" y1="230" x2="698.1" y2="218.7"/>
</g>
<g>
	<path class="st7" d="M1723.8,213.5c3.2-3.9,7.3-6.2,11.5-6.3c-0.7,1.2-0.3,3.2,0.5,4.3c0.9,1,2,1.3,3.2,1.4c2.4,0.2,4.8-0.2,7-1.3
		c4.3-2.1,8.8-6.5,12.9-3.9c0.9,3.3,3.9,5.1,6.2,3.8c-0.4,1.9,0.9,3.8,2.3,4.2s2.8-0.3,4.1-0.8c4-1.5,8.3-1.9,12.4-1"/>
	<path class="st7" d="M1803,216.6c3.5-2.1,6.9-4.2,10.4-6.4c1.8-1.1,3.9-2.3,5.8-1.5c1.9,0.7,3.4,4.3,2.1,6.5c1.7,2.1,4.2-0.5,6.2-2
		c2.8-2.1,6-2,9.2-1.8c11.9,0.5,23.9,1,35.8,1.5"/>
	<path class="st7" d="M1887.2,220.9c13.2-5.2,27.3-3.5,41-2.9c12.6,0.5,25.3,0.1,37.9-1.4c2.6-0.3,5.1-0.6,7.7-1
		c0.9-0.1,1.8-0.2,2.6-0.4c5.6-0.7,11.2-1.5,16.8-1.9c15-1.2,30-0.3,44.9,2.8"/>
	<path class="st7" d="M2055.5,215.8c1.8,0.1,3.6,0.3,5.4,0.4c-1.4,2.1,0.2,5.8,2.1,6.3c2,0.5,4-0.9,5.8-2c6.2-3.9,13.1-5.3,19.9-4.2
		c2.2,0.4,4.3,1,6.4,1.6"/>
	<path class="st7" d="M2111,220.3c3.1-2.4,6.3,2.4,9.6,4.3c4.7,2.8,10-0.7,15-2.6c10.6-4.1,22-0.8,32.7-4.5c6.4-2.2,13-6.8,19.1-3.3
		c-0.5,3.3,2.8,4.8,5.2,4.8c9.5,0,19.1,0.1,28.6,0.1"/>
	<path class="st7" d="M1661.8,247.5c2.6-0.4,5.2-0.8,7.7-1.2c-1.2,3.3,2,6.9,4.6,6.2c2.6-0.7,4.6-3.6,6.9-5.4
		c4.2-3.3,9.3-2.8,14-2.2c5.5,0.7,11,1.3,16.5,2c1.2,0.1,2.5,0.3,3.6,1.2c0.8,0.6,1.3,1.6,2,2.3c5.2,5.5,12.2-2.2,18.7-2.8
		c8.3-0.7,16.4,10.5,24,5.8"/>
	<path class="st7" d="M1781,253.7c5.4-1,10.7-2.1,16.1-3.1c2-0.4,4.2-0.7,6,0.6c1.8,1.3,2.9,5,1.5,7.1c25.2,0.5,50.4,1,75.7,1.4
		c9.4,0.2,19.5,0,27.1-7.8"/>
	<path class="st7" d="M1931,254.3c4.6-0.7,9.1-1.5,13.7-2.2c1.3-0.2,2.6-0.4,3.7,0.4c1.2,0.9,1.9,2.9,3,4c1.6,1.7,3.9,1.5,5.9,1.1
		c3.7-0.6,7.5-1.2,11.2-1.8c8.5-1.3,17.1-2.6,25.4-0.4c2.7,0.7,5.6,1.8,8.2,0.6c1-0.5,2-1.3,3.1-1.5c1.8-0.3,3.4,1.2,5,2.3
		c3.7,2.7,8,3.8,12.2,3.2c8.5-1.3,17.6-9.5,24.8-3.1"/>
	<g>
		<path class="st7" d="M1659.9,208.8c1.3-2.5,3.9-2.2,6.1-1.5c4.1,1.3,8.6,3,12.4,0.5c1.7-1.1,3.2-2.9,5-3.2c1-0.2,1.9,0.1,2.9,0.4
			c7.1,2.1,14.2,4.1,21.3,6.2"/>
		<path class="st7" d="M2081.7,260.5c7.2,0,14.5-0.1,21.7-0.1c2.2,0,4.3,0,6.5,0c4.4,0,8.8,0,13.2-0.1c18.1-0.1,36.2-0.2,54.3-0.2
			c2,0,4.1,0,6,1.1c0.3-5.7,6-6.4,9.9-5.5c5.8,1.3,11.5,2.6,17.3,4"/>
	</g>
</g>
<path class="st8" d="M2236.4,550.9h-587.8c-6.6,0-12-5.4-12-12V376.4c0-6.6,5.4-12,12-12h587.8c6.6,0,12,5.4,12,12v162.5
	C2248.4,545.5,2243,550.9,2236.4,550.9z"/>
<g>
	<path class="st7" d="M1723.8,443.3c3.2-3.9,7.3-6.2,11.5-6.3c-0.7,1.2-0.3,3.2,0.5,4.3c0.9,1,2,1.3,3.2,1.4c2.4,0.2,4.8-0.2,7-1.3
		c4.3-2.1,8.8-6.5,12.9-3.9c0.9,3.3,3.9,5.1,6.2,3.8c-0.4,1.9,0.9,3.8,2.3,4.2s2.8-0.3,4.1-0.8c4-1.5,8.3-1.9,12.4-1"/>
	<path class="st7" d="M1803,446.4c3.5-2.1,6.9-4.2,10.4-6.4c1.8-1.1,3.9-2.3,5.8-1.5c1.9,0.7,3.4,4.3,2.1,6.5c1.7,2.1,4.2-0.5,6.2-2
		c2.8-2.1,6-2,9.2-1.8c11.9,0.5,23.9,1,35.8,1.5"/>
	<path class="st7" d="M1887.2,450.7c13.2-5.2,27.3-3.5,41-2.9c12.6,0.5,25.3,0.1,37.9-1.4c2.6-0.3,5.1-0.6,7.7-1
		c0.9-0.1,1.8-0.2,2.6-0.4c5.6-0.7,11.2-1.5,16.8-1.9c15-1.2,30-0.3,44.9,2.8"/>
	<path class="st7" d="M2055.5,445.6c1.8,0.1,3.6,0.3,5.4,0.4c-1.4,2.1,0.2,5.8,2.1,6.3s4-0.9,5.8-2c6.2-3.9,13.1-5.3,19.9-4.2
		c2.2,0.4,4.3,1,6.4,1.6"/>
	<path class="st7" d="M2111,450.1c3.1-2.4,6.3,2.4,9.6,4.3c4.7,2.8,10-0.7,15-2.6c10.6-4.1,22-0.8,32.7-4.5c6.4-2.2,13-6.8,19.1-3.3
		c-0.5,3.3,2.8,4.8,5.2,4.8c9.5,0,19.1,0.1,28.6,0.1"/>
	<path class="st7" d="M1661.8,477.3c2.6-0.4,5.2-0.8,7.7-1.2c-1.2,3.3,2,6.9,4.6,6.2c2.6-0.7,4.6-3.6,6.9-5.4
		c4.2-3.3,9.3-2.8,14-2.2c5.5,0.7,11,1.3,16.5,2c1.2,0.1,2.5,0.3,3.6,1.2c0.8,0.6,1.3,1.6,2,2.3c5.2,5.5,12.2-2.2,18.7-2.8
		c8.3-0.7,16.4,10.5,24,5.8"/>
	<path class="st7" d="M1781,483.5c5.4-1,10.7-2.1,16.1-3.1c2-0.4,4.2-0.7,6,0.6c1.8,1.3,2.9,5,1.5,7.1c25.2,0.5,50.4,1,75.7,1.4
		c9.4,0.2,19.5,0,27.1-7.8"/>
	<path class="st7" d="M1931,484.1c4.6-0.7,9.1-1.5,13.7-2.2c1.3-0.2,2.6-0.4,3.7,0.4c1.2,0.9,1.9,2.9,3,4c1.6,1.7,3.9,1.5,5.9,1.1
		c3.7-0.6,7.5-1.2,11.2-1.8c8.5-1.3,17.1-2.6,25.4-0.4c2.7,0.7,5.6,1.8,8.2,0.6c1-0.5,2-1.3,3.1-1.5c1.8-0.3,3.4,1.2,5,2.3
		c3.7,2.7,8,3.8,12.2,3.2c8.5-1.3,17.6-9.5,24.8-3.1"/>
	<g>
		<path class="st7" d="M1659.9,438.7c1.3-2.5,3.9-2.2,6.1-1.5c4.1,1.3,8.6,3,12.4,0.5c1.7-1.1,3.2-2.9,5-3.2c1-0.2,1.9,0.1,2.9,0.4
			c7.1,2.1,14.2,4.1,21.3,6.2"/>
		<path class="st7" d="M2081.7,490.3c7.2,0,14.5-0.1,21.7-0.1c2.2,0,4.3,0,6.5,0c4.4,0,8.8,0,13.2-0.1c18.1-0.1,36.2-0.2,54.3-0.2
			c2,0,4.1,0,6,1.1c0.3-5.7,6-6.4,9.9-5.5c5.8,1.3,11.5,2.6,17.3,4"/>
	</g>
</g>
<g>
	<path class="st7" d="M133.1,220.9c3.2-3.9,7.3-6.2,11.5-6.3c-0.7,1.2-0.3,3.2,0.5,4.3c0.9,1,2,1.3,3.2,1.4c2.4,0.2,4.8-0.2,7-1.3
		c4.3-2.1,8.8-6.5,12.9-3.9c0.9,3.3,3.9,5.1,6.2,3.8c-0.4,1.9,0.9,3.8,2.3,4.2s2.8-0.3,4.1-0.8c4-1.5,8.3-1.9,12.4-1"/>
	<path class="st7" d="M212.3,224c3.5-2.1,6.9-4.2,10.4-6.4c1.8-1.1,3.9-2.3,5.8-1.5c1.9,0.7,3.4,4.3,2.1,6.5c1.7,2.1,4.2-0.5,6.2-2
		c2.8-2.1,6-2,9.2-1.8c11.9,0.5,23.9,1,35.8,1.5"/>
	<path class="st7" d="M296.5,228.4c13.2-5.2,27.3-3.5,41-2.9c12.6,0.5,25.3,0.1,37.9-1.4c2.6-0.3,5.1-0.6,7.7-1
		c0.9-0.1,1.8-0.2,2.6-0.4c5.6-0.7,11.2-1.5,16.8-1.9c15-1.2,30-0.3,44.9,2.8"/>
	<path class="st7" d="M464.8,223.2c1.8,0.1,3.6,0.3,5.4,0.4c-1.4,2.1,0.2,5.8,2.1,6.3c2,0.5,4-0.9,5.8-2c6.2-3.9,13.1-5.3,19.9-4.2
		c2.2,0.4,4.3,1,6.4,1.6"/>
	<path class="st7" d="M520.3,227.7c3.1-2.4,6.3,2.4,9.6,4.3c4.7,2.8,10-0.7,15-2.6c10.6-4.1,22-0.8,32.7-4.5
		c6.4-2.2,13-6.8,19.1-3.3c-0.5,3.3,2.8,4.8,5.2,4.8c9.5,0,19.1,0.1,28.6,0.1"/>
	<path class="st7" d="M71.1,254.9c2.6-0.4,5.2-0.8,7.7-1.2c-1.2,3.3,2,6.9,4.6,6.2c2.6-0.7,4.6-3.6,6.9-5.4c4.2-3.3,9.3-2.8,14-2.2
		c5.5,0.7,11,1.3,16.5,2c1.2,0.1,2.5,0.3,3.6,1.2c0.8,0.6,1.3,1.6,2,2.3c5.2,5.5,12.2-2.2,18.7-2.8c8.3-0.7,16.4,10.5,24,5.8"/>
	<path class="st7" d="M190.3,261.2c5.4-1,10.7-2.1,16.1-3.1c2-0.4,4.2-0.7,6,0.6s2.9,5,1.5,7.1c25.2,0.5,50.4,1,75.7,1.4
		c9.4,0.2,19.5,0,27.1-7.8"/>
	<path class="st7" d="M340.3,261.7c4.6-0.7,9.1-1.5,13.7-2.2c1.3-0.2,2.6-0.4,3.7,0.4c1.2,0.9,1.9,2.9,3,4c1.6,1.7,3.9,1.5,5.9,1.1
		c3.7-0.6,7.5-1.2,11.2-1.8c8.5-1.3,17.1-2.6,25.4-0.4c2.7,0.7,5.6,1.8,8.2,0.6c1-0.5,2-1.3,3.1-1.5c1.8-0.3,3.4,1.2,5,2.3
		c3.7,2.7,8,3.8,12.2,3.2c8.5-1.3,17.6-9.5,24.8-3.1"/>
	<g>
		<path class="st7" d="M69.1,216.3c1.3-2.5,3.9-2.2,6.1-1.5c4.1,1.3,8.6,3,12.4,0.5c1.7-1.1,3.2-2.9,5-3.2c1-0.2,1.9,0.1,2.9,0.4
			c7.1,2.1,14.2,4.1,21.3,6.2"/>
		<path class="st7" d="M491,268c7.2,0,14.5-0.1,21.7-0.1c2.2,0,4.3,0,6.5,0c4.4,0,8.8,0,13.2-0.1c18.1-0.1,36.2-0.2,54.3-0.2
			c2,0,4.1,0,6,1.1c0.3-5.7,6-6.4,9.9-5.5c5.8,1.3,11.5,2.6,17.3,4"/>
	</g>
</g>
<g>
	<path class="st7" d="M330.5,1490.9c11.7-4.8,27.1-7.7,42.7-7.8c-2.6,1.6-1.2,4,2,5.3s7.6,1.7,11.8,1.8c8.8,0.3,17.7-0.3,26.1-1.6
		c15.9-2.6,32.6-8.1,48-4.8c3.3,4.1,14.4,6.4,22.9,4.7c-1.5,2.4,3.3,4.8,8.4,5.2s10.3-0.4,15.4-1c14.9-1.9,30.7-2.4,45.9-1.2"/>
	<path class="st7" d="M624.1,1494.8c12.9-2.6,25.7-5.3,38.6-7.9c6.8-1.4,14.3-2.8,21.5-1.9c7.2,0.9,12.5,5.4,7.7,8.1
		c6.4,2.6,15.6-0.6,23-2.5c10.2-2.6,22.4-2.5,34-2.3c44.3,0.6,88.6,1.3,132.9,1.9"/>
	<path class="st7" d="M936.2,1500.2c49.1-6.5,101.1-4.3,152-3.6c46.9,0.7,93.8,0.1,140.5-1.8c9.5-0.4,19-0.8,28.4-1.2
		c3.3-0.1,6.5-0.3,9.8-0.4c20.7-0.9,41.4-1.9,62.1-2.4c55.5-1.5,111.3-0.3,166.3,3.5"/>
	<path class="st7" d="M1560.1,1493.8c6.6,0.2,13.2,0.4,19.9,0.5c-5.2,2.6,0.6,7.2,8,7.9c7.4,0.7,14.7-1.1,21.6-2.5
		c23-4.8,48.7-6.6,73.7-5.2c8,0.5,16,1.2,23.9,2"/>
	<path class="st7" d="M1766,1499.4c11.4-3,23.5,2.9,35.4,5.3c17.6,3.5,37.2-0.8,55.6-3.2c39.2-5.1,81.7-1,121.2-5.5
		c23.6-2.7,48.3-8.5,70.8-4.2c-2,4.1,10.4,6,19.3,6c35.3,0.1,70.7,0.1,106,0.2"/>
	<path class="st7" d="M100.6,1533.4c9.6-0.5,19.1-1,28.7-1.5c-4.6,4.1,7.4,8.5,17.1,7.7c9.6-0.9,16.9-4.5,25.5-6.7
		c15.5-4.1,34.3-3.5,52-2.8c20.4,0.8,40.8,1.6,61.3,2.4c4.6,0.2,9.3,0.4,13.3,1.5c2.8,0.8,5,2,7.6,2.9c19.2,6.8,45.2-2.7,69.2-3.4
		c30.7-0.9,60.9,13.1,89,7.2"/>
	<path class="st7" d="M542.6,1541.1c19.9-1.3,39.8-2.6,59.7-3.9c7.4-0.5,15.4-0.9,22.1,0.7c6.7,1.6,10.6,6.2,5.6,8.8
		c93.5,0.6,187,1.2,280.5,1.8c34.8,0.2,72.3,0,100.3-9.7"/>
	<path class="st7" d="M1098.8,1541.8c16.9-0.9,33.9-1.8,50.8-2.7c4.7-0.3,9.7-0.5,13.8,0.6c4.6,1.1,7.1,3.6,11.3,5
		c6.1,2.1,14.4,1.8,21.9,1.4c13.9-0.7,27.8-1.5,41.7-2.2c31.4-1.6,63.3-3.3,94.3-0.5c10.1,0.9,20.8,2.3,30.5,0.7
		c3.8-0.6,7.4-1.7,11.4-1.9c6.6-0.4,12.8,1.5,18.7,2.9c13.8,3.4,29.7,4.7,45.1,3.9c31.4-1.7,65.1-11.8,91.9-3.8"/>
	<g>
		<path class="st7" d="M93.5,1485.2c4.8-3.1,14.6-2.7,22.5-1.9c15.3,1.6,31.8,3.7,46.1,0.7c6.2-1.3,11.8-3.6,18.5-4
			c3.5-0.2,7.1,0.1,10.6,0.5c26.4,2.6,52.7,5.1,79.1,7.7"/>
		<path class="st7" d="M1657.4,1549.6c26.8,0,53.6-0.1,80.4-0.1c8,0,16.1,0,24.1,0c16.3,0,32.5-0.1,48.8-0.1
			c67.1-0.1,134.2-0.2,201.3-0.3c7.6,0,15.4,0,22.4,1.4c1.2-7,22.1-8,36.8-6.9c21.3,1.6,42.7,3.3,64,4.9"/>
	</g>
</g>
</svg>
