<?xml version="1.0" encoding="utf-8"?>
<!-- Generator: Adobe Illustrator 21.0.0, SVG Export Plug-In . SVG Version: 6.00 Build 0)  -->
<svg version="1.1" id="Layer_1" xmlns="http://www.w3.org/2000/svg" xmlns:xlink="http://www.w3.org/1999/xlink" x="0px" y="0px"
	 viewBox="0 0 2267.7 1602.6" style="enable-background:new 0 0 2267.7 1602.6;" xml:space="preserve">
<style type="text/css">
	.st0{fill:#FFFFFF;}
	.st1{fill:#E8E8E8;}
	.st2{fill:#CECECE;}
	.st3{fill:none;stroke:#FFFFFF;stroke-width:3;stroke-miterlimit:10;}
	.st4{fill:#E8E8E8;stroke:#FFFFFF;stroke-miterlimit:10;}
	.st5{opacity:0.5;fill:#1DE9B6;stroke:#FFFFFF;stroke-miterlimit:10;}
	.st6{opacity:0.5;fill:#FA2F31;stroke:#FFFFFF;stroke-miterlimit:10;}
	.st7{opacity:0.5;fill:#F8C51C;stroke:#FFFFFF;stroke-miterlimit:10;}
	.st8{opacity:0.5;fill:#A389D4;stroke:#FFFFFF;stroke-miterlimit:10;}
	.st9{opacity:0.5;fill:#04A9F5;stroke:#FFFFFF;stroke-miterlimit:10;}
	.st10{clip-path:url(#SVGID_2_);}
	.st11{opacity:0.2;fill:#999999;stroke:#FFFFFF;stroke-miterlimit:10;}
	.st12{clip-path:url(#SVGID_4_);}
	.st13{clip-path:url(#SVGID_6_);}
	.st14{clip-path:url(#SVGID_8_);}
	.st15{clip-path:url(#SVGID_10_);}
</style>
<rect class="st0" width="2267.7" height="1500"/>
<g>
	<rect class="st1" width="2267.7" height="101.4"/>
	<circle class="st2" cx="64" cy="50.7" r="19.7"/>
	<circle class="st2" cx="132.1" cy="50.7" r="19.7"/>
	<circle class="st2" cx="195.5" cy="50.7" r="19.7"/>
</g>
<rect x="1888.9" y="852.7" class="st3" width="329.6" height="106.7"/>
<path class="st4" d="M1080.7,368.5H229c-29.3,0-53.2-23.9-53.2-53.2v0c0-29.3,23.9-53.2,53.2-53.2h851.6c29.3,0,53.2,23.9,53.2,53.2
	v0C1133.9,344.6,1109.9,368.5,1080.7,368.5z"/>
<path class="st4" d="M1080.7,599.2H229c-29.3,0-53.2-23.9-53.2-53.2v0c0-29.3,23.9-53.2,53.2-53.2h851.6c29.3,0,53.2,23.9,53.2,53.2
	v0C1133.9,575.2,1109.9,599.2,1080.7,599.2z"/>
<path class="st4" d="M1080.7,854.5H229c-29.3,0-53.2-23.9-53.2-53.2v0c0-29.3,23.9-53.2,53.2-53.2h851.6c29.3,0,53.2,23.9,53.2,53.2
	v0C1133.9,830.6,1109.9,854.5,1080.7,854.5z"/>
<path class="st5" d="M748.1,368.5H229c-29.3,0-53.2-23.9-53.2-53.2v0c0-29.3,23.9-53.2,53.2-53.2h519.1c29.3,0,53.2,23.9,53.2,53.2
	v0C801.3,344.6,777.4,368.5,748.1,368.5z"/>
<path class="st4" d="M1080.7,1304.3H229c-29.3,0-53.2-23.9-53.2-53.2v0c0-29.3,23.9-53.2,53.2-53.2h851.6
	c29.3,0,53.2,23.9,53.2,53.2v0C1133.9,1280.3,1109.9,1304.3,1080.7,1304.3z"/>
<path class="st6" d="M748.1,1304.3H229c-29.3,0-53.2-23.9-53.2-53.2v0c0-29.3,23.9-53.2,53.2-53.2h519.1c29.3,0,53.2,23.9,53.2,53.2
	v0C801.3,1280.3,777.4,1304.3,748.1,1304.3z"/>
<path class="st4" d="M1080.7,1082.7H229c-29.3,0-53.2-23.9-53.2-53.2l0,0c0-29.3,23.9-53.2,53.2-53.2h851.6
	c29.3,0,53.2,23.9,53.2,53.2l0,0C1133.9,1058.8,1109.9,1082.7,1080.7,1082.7z"/>
<path class="st7" d="M974.6,1082.7H229c-29.3,0-53.2-23.9-53.2-53.2l0,0c0-29.3,23.9-53.2,53.2-53.2h745.6
	c29.3,0,53.2,23.9,53.2,53.2l0,0C1027.8,1058.8,1003.9,1082.7,974.6,1082.7z"/>
<path class="st8" d="M954.5,599.2H229c-29.3,0-53.2-23.9-53.2-53.2v0c0-29.3,23.9-53.2,53.2-53.2h725.5c29.3,0,53.2,23.9,53.2,53.2
	v0C1007.7,575.2,983.8,599.2,954.5,599.2z"/>
<path class="st9" d="M562.5,854.5H229c-29.3,0-53.2-23.9-53.2-53.2v0c0-29.3,23.9-53.2,53.2-53.2h333.5c29.3,0,53.2,23.9,53.2,53.2
	v0C615.7,830.6,591.8,854.5,562.5,854.5z"/>
<path class="st4" d="M2128,368.5h-851.6c-29.3,0-53.2-23.9-53.2-53.2v0c0-29.3,23.9-53.2,53.2-53.2H2128c29.3,0,53.2,23.9,53.2,53.2
	v0C2181.2,344.6,2157.3,368.5,2128,368.5z"/>
<path class="st4" d="M2128,599.2h-851.6c-29.3,0-53.2-23.9-53.2-53.2v0c0-29.3,23.9-53.2,53.2-53.2H2128c29.3,0,53.2,23.9,53.2,53.2
	v0C2181.2,575.2,2157.3,599.2,2128,599.2z"/>
<path class="st4" d="M2128,854.5h-851.6c-29.3,0-53.2-23.9-53.2-53.2v0c0-29.3,23.9-53.2,53.2-53.2H2128c29.3,0,53.2,23.9,53.2,53.2
	v0C2181.2,830.6,2157.3,854.5,2128,854.5z"/>
<path class="st4" d="M2128,1304.3h-851.6c-29.3,0-53.2-23.9-53.2-53.2v0c0-29.3,23.9-53.2,53.2-53.2H2128
	c29.3,0,53.2,23.9,53.2,53.2v0C2181.2,1280.3,2157.3,1304.3,2128,1304.3z"/>
<path class="st4" d="M2128,1082.7h-851.6c-29.3,0-53.2-23.9-53.2-53.2l0,0c0-29.3,23.9-53.2,53.2-53.2H2128
	c29.3,0,53.2,23.9,53.2,53.2l0,0C2181.2,1058.8,2157.3,1082.7,2128,1082.7z"/>
<g>
	<g>
		<defs>
			<path id="SVGID_1_" d="M1801.3,368.5h-519.1c-29.3,0-53.2-23.9-53.2-53.2v0c0-29.3,23.9-53.2,53.2-53.2h519.1
				c29.3,0,53.2,23.9,53.2,53.2v0C1854.6,344.6,1830.6,368.5,1801.3,368.5z"/>
		</defs>
		<clipPath id="SVGID_2_">
			<use xlink:href="#SVGID_1_"  style="overflow:visible;"/>
		</clipPath>
		<g class="st10">
			<polygon class="st11" points="1363,415.2 1294.3,390.2 1377.5,215.4 1446.2,240.5 			"/>
			<polygon class="st11" points="1241.7,415.2 1172.9,390.2 1256.2,215.4 1324.9,240.5 			"/>
			<polygon class="st11" points="1496,415.2 1427.3,390.2 1510.5,215.4 1579.2,240.5 			"/>
			<polygon class="st11" points="1624.8,415.2 1556.1,390.2 1639.3,215.4 1708,240.5 			"/>
			<polygon class="st11" points="1771.3,415.2 1702.6,390.2 1785.8,215.4 1854.6,240.5 			"/>
		</g>
	</g>
	<path class="st5" d="M1801.3,368.5h-519.1c-29.3,0-53.2-23.9-53.2-53.2v0c0-29.3,23.9-53.2,53.2-53.2h519.1
		c29.3,0,53.2,23.9,53.2,53.2v0C1854.6,344.6,1830.6,368.5,1801.3,368.5z"/>
</g>
<g>
	<g>
		<defs>
			<path id="SVGID_3_" d="M1936.2,599.2h-653.9c-29.3,0-53.2-23.9-53.2-53.2v0c0-29.3,23.9-53.2,53.2-53.2h653.9
				c29.3,0,53.2,23.9,53.2,53.2v0C1989.4,575.2,1965.4,599.2,1936.2,599.2z"/>
		</defs>
		<clipPath id="SVGID_4_">
			<use xlink:href="#SVGID_3_"  style="overflow:visible;"/>
		</clipPath>
		<g class="st12">
			<polygon class="st11" points="1391.8,645.9 1308.3,620.8 1409.5,446 1493,471.1 			"/>
			<polygon class="st11" points="1244.4,645.9 1160.9,620.8 1262.1,446 1345.6,471.1 			"/>
			<polygon class="st11" points="1553.5,645.9 1470,620.8 1571.2,446 1654.7,471.1 			"/>
			<polygon class="st11" points="1710.1,645.9 1626.6,620.8 1727.8,446 1811.3,471.1 			"/>
			<polygon class="st11" points="1888.2,645.9 1804.6,620.8 1905.8,446 1989.4,471.1 			"/>
		</g>
	</g>
	<path class="st8" d="M1936.2,599.2h-653.9c-29.3,0-53.2-23.9-53.2-53.2v0c0-29.3,23.9-53.2,53.2-53.2h653.9
		c29.3,0,53.2,23.9,53.2,53.2v0C1989.4,575.2,1965.4,599.2,1936.2,599.2z"/>
</g>
<g>
	<g>
		<defs>
			<path id="SVGID_5_" d="M1722.1,854.5h-439.9c-29.3,0-53.2-23.9-53.2-53.2v0c0-29.3,23.9-53.2,53.2-53.2h439.9
				c29.3,0,53.2,23.9,53.2,53.2v0C1775.3,830.6,1751.4,854.5,1722.1,854.5z"/>
		</defs>
		<clipPath id="SVGID_6_">
			<use xlink:href="#SVGID_5_"  style="overflow:visible;"/>
		</clipPath>
		<g class="st13">
			<polygon class="st11" points="1346,901.2 1286,876.2 1358.7,701.4 1418.7,726.5 			"/>
			<polygon class="st11" points="1240.1,901.2 1180.1,876.2 1252.8,701.4 1312.8,726.5 			"/>
			<polygon class="st11" points="1462.1,901.2 1402.1,876.2 1474.9,701.4 1534.9,726.5 			"/>
			<polygon class="st11" points="1574.7,901.2 1514.7,876.2 1587.4,701.4 1647.4,726.5 			"/>
			<polygon class="st11" points="1702.6,901.2 1642.6,876.2 1715.3,701.4 1775.3,726.5 			"/>
		</g>
	</g>
	<path class="st9" d="M1722.1,854.5h-439.9c-29.3,0-53.2-23.9-53.2-53.2v0c0-29.3,23.9-53.2,53.2-53.2h439.9
		c29.3,0,53.2,23.9,53.2,53.2v0C1775.3,830.6,1751.4,854.5,1722.1,854.5z"/>
</g>
<g>
	<g>
		<defs>
			<path id="SVGID_7_" d="M2022.9,1082.7h-740.6c-29.3,0-53.2-23.9-53.2-53.2l0,0c0-29.3,23.9-53.2,53.2-53.2h740.6
				c29.3,0,53.2,23.9,53.2,53.2l0,0C2076.1,1058.8,2052.1,1082.7,2022.9,1082.7z"/>
		</defs>
		<clipPath id="SVGID_8_">
			<use xlink:href="#SVGID_7_"  style="overflow:visible;"/>
		</clipPath>
		<g class="st14">
			<polygon class="st11" points="1410.4,1129.4 1317.4,1104.4 1430.1,929.6 1523.2,954.6 			"/>
			<polygon class="st11" points="1246.1,1129.4 1153.1,1104.4 1265.8,929.6 1358.9,954.6 			"/>
			<polygon class="st11" points="1590.5,1129.4 1497.5,1104.4 1610.2,929.6 1703.2,954.6 			"/>
			<polygon class="st11" points="1764.9,1129.4 1671.9,1104.4 1784.6,929.6 1877.7,954.6 			"/>
			<polygon class="st11" points="1963.3,1129.4 1870.3,1104.4 1983,929.6 2076.1,954.6 			"/>
		</g>
	</g>
	<path class="st7" d="M2022.9,1082.7h-740.6c-29.3,0-53.2-23.9-53.2-53.2l0,0c0-29.3,23.9-53.2,53.2-53.2h740.6
		c29.3,0,53.2,23.9,53.2,53.2l0,0C2076.1,1058.8,2052.1,1082.7,2022.9,1082.7z"/>
</g>
<g>
	<g>
		<defs>
			<path id="SVGID_9_" d="M1801.3,1304.3h-519.1c-29.3,0-53.2-23.9-53.2-53.2v0c0-29.3,23.9-53.2,53.2-53.2h519.1
				c29.3,0,53.2,23.9,53.2,53.2v0C1854.6,1280.3,1830.6,1304.3,1801.3,1304.3z"/>
		</defs>
		<clipPath id="SVGID_10_">
			<use xlink:href="#SVGID_9_"  style="overflow:visible;"/>
		</clipPath>
		<g class="st15">
			<polygon class="st11" points="1363,1351 1294.3,1325.9 1377.5,1151.1 1446.2,1176.2 			"/>
			<polygon class="st11" points="1241.7,1351 1172.9,1325.9 1256.2,1151.1 1324.9,1176.2 			"/>
			<polygon class="st11" points="1496,1351 1427.3,1325.9 1510.5,1151.1 1579.2,1176.2 			"/>
			<polygon class="st11" points="1624.8,1351 1556.1,1325.9 1639.3,1151.1 1708,1176.2 			"/>
			<polygon class="st11" points="1771.3,1351 1702.6,1325.9 1785.8,1151.1 1854.6,1176.2 			"/>
		</g>
	</g>
	<path class="st6" d="M1801.3,1304.3h-519.1c-29.3,0-53.2-23.9-53.2-53.2v0c0-29.3,23.9-53.2,53.2-53.2h519.1
		c29.3,0,53.2,23.9,53.2,53.2v0C1854.6,1280.3,1830.6,1304.3,1801.3,1304.3z"/>
</g>
</svg>
