<?xml version="1.0" encoding="utf-8"?>
<!-- Generator: Adobe Illustrator 21.0.0, SVG Export Plug-In . SVG Version: 6.00 Build 0)  -->
<svg version="1.1" id="Layer_1" xmlns="http://www.w3.org/2000/svg" xmlns:xlink="http://www.w3.org/1999/xlink" x="0px" y="0px"
	 viewBox="0 0 2267.7 1539" style="enable-background:new 0 0 2267.7 1539;" xml:space="preserve">
<style type="text/css">
	.st0{fill:#FFFFFF;stroke:#000000;stroke-miterlimit:10;}
	.st1{display:none;fill:#EDEDED;stroke:#000000;stroke-miterlimit:10;}
	.st2{fill:#FFFFFF;}
	.st3{fill:none;stroke:#EAEAEA;stroke-width:3;stroke-miterlimit:10;}
	.st4{fill:#A389D4;}
	.st5{fill:#EDEDED;}
	.st6{fill:#899FD4;}
	.st7{fill:#E8E8E8;}
	.st8{fill:#CECECE;}
</style>
<rect y="4.7" class="st0" width="2267.7" height="1534.3"/>
<rect y="0" class="st1" width="2267.7" height="1539"/>
<rect x="94.7" y="176" class="st2" width="2055.5" height="119.6"/>
<rect x="121.9" y="211" class="st3" width="50.4" height="50.4"/>
<path class="st4" d="M551.8,255H249.2c-10.6,0-19.2-8.6-19.2-19.2l0,0c0-10.6,8.6-19.2,19.2-19.2h302.6c10.6,0,19.2,8.6,19.2,19.2
	l0,0C571,246.3,562.4,255,551.8,255z"/>
<polygon class="st5" points="612.7,243.1 634.8,264.5 656.2,242.4 "/>
<polygon class="st5" points="1574.2,805.2 1552.1,783.7 1530.7,805.8 "/>
<polygon class="st5" points="656.2,234.2 634.1,212.8 612.7,234.9 "/>
<path class="st5" d="M1043.4,255H740.8c-10.6,0-19.2-8.6-19.2-19.2l0,0c0-10.6,8.6-19.2,19.2-19.2h302.6c10.6,0,19.2,8.6,19.2,19.2
	l0,0C1062.6,246.3,1053.9,255,1043.4,255z"/>
<polygon class="st5" points="1104.3,243.1 1126.4,264.5 1147.8,242.4 "/>
<polygon class="st5" points="1147.8,234.2 1125.7,212.8 1104.3,234.9 "/>
<path class="st5" d="M1535,255h-302.6c-10.6,0-19.2-8.6-19.2-19.2l0,0c0-10.6,8.6-19.2,19.2-19.2H1535c10.6,0,19.2,8.6,19.2,19.2
	l0,0C1554.2,246.3,1545.5,255,1535,255z"/>
<polygon class="st5" points="1595.9,243.1 1618,264.5 1639.4,242.4 "/>
<polygon class="st5" points="1639.4,234.2 1617.3,212.8 1595.9,234.9 "/>
<path class="st5" d="M2003.2,255h-302.6c-10.6,0-19.2-8.6-19.2-19.2l0,0c0-10.6,8.6-19.2,19.2-19.2h302.6c10.6,0,19.2,8.6,19.2,19.2
	l0,0C2022.5,246.3,2013.8,255,2003.2,255z"/>
<polygon class="st5" points="2064.2,243.1 2086.2,264.5 2107.7,242.4 "/>
<polygon class="st5" points="2107.7,234.2 2085.6,212.8 2064.2,234.9 "/>
<rect x="94.7" y="330.4" class="st2" width="2055.5" height="119.6"/>
<rect x="121.9" y="365.4" class="st3" width="50.4" height="50.4"/>
<path class="st6" d="M551.8,409.4H249.2c-10.6,0-19.2-8.6-19.2-19.2l0,0c0-10.6,8.6-19.2,19.2-19.2h302.6c10.6,0,19.2,8.6,19.2,19.2
	l0,0C571,400.8,562.4,409.4,551.8,409.4z"/>
<polygon class="st5" points="612.7,397.5 634.8,418.9 656.2,396.8 "/>
<polygon class="st5" points="656.2,388.7 634.1,367.2 612.7,389.3 "/>
<path class="st5" d="M1043.4,409.4H740.8c-10.6,0-19.2-8.6-19.2-19.2l0,0c0-10.6,8.6-19.2,19.2-19.2h302.6
	c10.6,0,19.2,8.6,19.2,19.2l0,0C1062.6,400.8,1053.9,409.4,1043.4,409.4z"/>
<polygon class="st5" points="1104.3,397.5 1126.4,418.9 1147.8,396.8 "/>
<polygon class="st5" points="1147.8,388.7 1125.7,367.2 1104.3,389.3 "/>
<path class="st5" d="M1535,409.4h-302.6c-10.6,0-19.2-8.6-19.2-19.2l0,0c0-10.6,8.6-19.2,19.2-19.2H1535c10.6,0,19.2,8.6,19.2,19.2
	l0,0C1554.2,400.8,1545.5,409.4,1535,409.4z"/>
<polygon class="st5" points="1595.9,397.5 1618,418.9 1639.4,396.8 "/>
<polygon class="st5" points="1639.4,388.7 1617.3,367.2 1595.9,389.3 "/>
<path class="st5" d="M2003.2,409.4h-302.6c-10.6,0-19.2-8.6-19.2-19.2l0,0c0-10.6,8.6-19.2,19.2-19.2h302.6
	c10.6,0,19.2,8.6,19.2,19.2l0,0C2022.5,400.8,2013.8,409.4,2003.2,409.4z"/>
<polygon class="st5" points="2064.2,397.5 2086.2,418.9 2107.7,396.8 "/>
<polygon class="st5" points="2107.7,388.7 2085.6,367.2 2064.2,389.3 "/>
<rect x="94.7" y="484.8" class="st2" width="2055.5" height="119.6"/>
<rect x="121.9" y="519.8" class="st3" width="50.4" height="50.4"/>
<path class="st4" d="M551.8,563.8H249.2c-10.6,0-19.2-8.6-19.2-19.2l0,0c0-10.6,8.6-19.2,19.2-19.2h302.6c10.6,0,19.2,8.6,19.2,19.2
	l0,0C571,555.2,562.4,563.8,551.8,563.8z"/>
<polygon class="st5" points="612.7,551.9 634.8,573.4 656.2,551.3 "/>
<polygon class="st5" points="656.2,543.1 634.1,521.7 612.7,543.8 "/>
<path class="st5" d="M1043.4,563.8H740.8c-10.6,0-19.2-8.6-19.2-19.2l0,0c0-10.6,8.6-19.2,19.2-19.2h302.6
	c10.6,0,19.2,8.6,19.2,19.2l0,0C1062.6,555.2,1053.9,563.8,1043.4,563.8z"/>
<polygon class="st5" points="1104.3,551.9 1126.4,573.4 1147.8,551.3 "/>
<polygon class="st5" points="1147.8,543.1 1125.7,521.7 1104.3,543.8 "/>
<path class="st5" d="M1535,563.8h-302.6c-10.6,0-19.2-8.6-19.2-19.2l0,0c0-10.6,8.6-19.2,19.2-19.2H1535c10.6,0,19.2,8.6,19.2,19.2
	l0,0C1554.2,555.2,1545.5,563.8,1535,563.8z"/>
<polygon class="st5" points="1595.9,551.9 1618,573.4 1639.4,551.3 "/>
<polygon class="st5" points="1639.4,543.1 1617.3,521.7 1595.9,543.8 "/>
<path class="st5" d="M2003.2,563.8h-302.6c-10.6,0-19.2-8.6-19.2-19.2l0,0c0-10.6,8.6-19.2,19.2-19.2h302.6
	c10.6,0,19.2,8.6,19.2,19.2l0,0C2022.5,555.2,2013.8,563.8,2003.2,563.8z"/>
<polygon class="st5" points="2064.2,551.9 2086.2,573.4 2107.7,551.3 "/>
<polygon class="st5" points="2107.7,543.1 2085.6,521.7 2064.2,543.8 "/>
<rect x="94.7" y="634.3" class="st2" width="2055.5" height="119.6"/>
<rect x="121.9" y="669.3" class="st3" width="50.4" height="50.4"/>
<path class="st6" d="M551.8,713.3H249.2c-10.6,0-19.2-8.6-19.2-19.2l0,0c0-10.6,8.6-19.2,19.2-19.2h302.6c10.6,0,19.2,8.6,19.2,19.2
	l0,0C571,704.7,562.4,713.3,551.8,713.3z"/>
<polygon class="st5" points="612.7,701.4 634.8,722.8 656.2,700.7 "/>
<polygon class="st5" points="656.2,692.6 634.1,671.1 612.7,693.2 "/>
<path class="st5" d="M1043.4,713.3H740.8c-10.6,0-19.2-8.6-19.2-19.2l0,0c0-10.6,8.6-19.2,19.2-19.2h302.6
	c10.6,0,19.2,8.6,19.2,19.2l0,0C1062.6,704.7,1053.9,713.3,1043.4,713.3z"/>
<polygon class="st5" points="1104.3,701.4 1126.4,722.8 1147.8,700.7 "/>
<polygon class="st5" points="1147.8,692.6 1125.7,671.1 1104.3,693.2 "/>
<path class="st5" d="M1535,713.3h-302.6c-10.6,0-19.2-8.6-19.2-19.2l0,0c0-10.6,8.6-19.2,19.2-19.2H1535c10.6,0,19.2,8.6,19.2,19.2
	l0,0C1554.2,704.7,1545.5,713.3,1535,713.3z"/>
<polygon class="st5" points="1595.9,701.4 1618,722.8 1639.4,700.7 "/>
<polygon class="st5" points="1639.4,692.6 1617.3,671.1 1595.9,693.2 "/>
<path class="st5" d="M2003.2,713.3h-302.6c-10.6,0-19.2-8.6-19.2-19.2l0,0c0-10.6,8.6-19.2,19.2-19.2h302.6
	c10.6,0,19.2,8.6,19.2,19.2l0,0C2022.5,704.7,2013.8,713.3,2003.2,713.3z"/>
<polygon class="st5" points="2064.2,701.4 2086.2,722.8 2107.7,700.7 "/>
<polygon class="st5" points="2107.7,692.6 2085.6,671.1 2064.2,693.2 "/>
<rect x="94.7" y="784.6" class="st2" width="2055.5" height="119.6"/>
<rect x="121.9" y="819.6" class="st3" width="50.4" height="50.4"/>
<path class="st4" d="M551.8,863.6H249.2c-10.6,0-19.2-8.6-19.2-19.2l0,0c0-10.6,8.6-19.2,19.2-19.2h302.6c10.6,0,19.2,8.6,19.2,19.2
	l0,0C571,854.9,562.4,863.6,551.8,863.6z"/>
<polygon class="st5" points="612.7,851.7 634.8,873.1 656.2,851 "/>
<polygon class="st5" points="656.2,842.8 634.1,821.4 612.7,843.5 "/>
<path class="st5" d="M1043.4,863.6H740.8c-10.6,0-19.2-8.6-19.2-19.2l0,0c0-10.6,8.6-19.2,19.2-19.2h302.6
	c10.6,0,19.2,8.6,19.2,19.2l0,0C1062.6,854.9,1053.9,863.6,1043.4,863.6z"/>
<polygon class="st5" points="1104.3,851.7 1126.4,873.1 1147.8,851 "/>
<polygon class="st5" points="1147.8,842.8 1125.7,821.4 1104.3,843.5 "/>
<path class="st5" d="M1535,863.6h-302.6c-10.6,0-19.2-8.6-19.2-19.2l0,0c0-10.6,8.6-19.2,19.2-19.2H1535c10.6,0,19.2,8.6,19.2,19.2
	l0,0C1554.2,854.9,1545.5,863.6,1535,863.6z"/>
<polygon class="st5" points="1595.9,851.7 1618,873.1 1639.4,851 "/>
<polygon class="st5" points="1639.4,842.8 1617.3,821.4 1595.9,843.5 "/>
<path class="st5" d="M2003.2,863.6h-302.6c-10.6,0-19.2-8.6-19.2-19.2l0,0c0-10.6,8.6-19.2,19.2-19.2h302.6
	c10.6,0,19.2,8.6,19.2,19.2l0,0C2022.5,854.9,2013.8,863.6,2003.2,863.6z"/>
<polygon class="st5" points="2064.2,851.7 2086.2,873.1 2107.7,851 "/>
<polygon class="st5" points="2107.7,842.8 2085.6,821.4 2064.2,843.5 "/>
<rect x="94.7" y="942.1" class="st2" width="2055.5" height="119.6"/>
<rect x="121.9" y="977.1" class="st3" width="50.4" height="50.4"/>
<path class="st6" d="M551.8,1021.1H249.2c-10.6,0-19.2-8.6-19.2-19.2l0,0c0-10.6,8.6-19.2,19.2-19.2h302.6
	c10.6,0,19.2,8.6,19.2,19.2l0,0C571,1012.5,562.4,1021.1,551.8,1021.1z"/>
<polygon class="st5" points="612.7,1009.2 634.8,1030.6 656.2,1008.5 "/>
<polygon class="st5" points="656.2,1000.4 634.1,978.9 612.7,1001 "/>
<path class="st5" d="M1043.4,1021.1H740.8c-10.6,0-19.2-8.6-19.2-19.2l0,0c0-10.6,8.6-19.2,19.2-19.2h302.6
	c10.6,0,19.2,8.6,19.2,19.2l0,0C1062.6,1012.5,1053.9,1021.1,1043.4,1021.1z"/>
<polygon class="st5" points="1104.3,1009.2 1126.4,1030.6 1147.8,1008.5 "/>
<polygon class="st5" points="1147.8,1000.4 1125.7,978.9 1104.3,1001 "/>
<path class="st5" d="M1535,1021.1h-302.6c-10.6,0-19.2-8.6-19.2-19.2l0,0c0-10.6,8.6-19.2,19.2-19.2H1535c10.6,0,19.2,8.6,19.2,19.2
	l0,0C1554.2,1012.5,1545.5,1021.1,1535,1021.1z"/>
<polygon class="st5" points="1595.9,1009.2 1618,1030.6 1639.4,1008.5 "/>
<polygon class="st5" points="1639.4,1000.4 1617.3,978.9 1595.9,1001 "/>
<path class="st5" d="M2003.2,1021.1h-302.6c-10.6,0-19.2-8.6-19.2-19.2l0,0c0-10.6,8.6-19.2,19.2-19.2h302.6
	c10.6,0,19.2,8.6,19.2,19.2l0,0C2022.5,1012.5,2013.8,1021.1,2003.2,1021.1z"/>
<polygon class="st5" points="2064.2,1009.2 2086.2,1030.6 2107.7,1008.5 "/>
<polygon class="st5" points="2107.7,1000.4 2085.6,978.9 2064.2,1001 "/>
<rect x="94.7" y="1099.6" class="st2" width="2055.5" height="119.6"/>
<rect x="121.9" y="1134.6" class="st3" width="50.4" height="50.4"/>
<path class="st4" d="M551.8,1178.6H249.2c-10.6,0-19.2-8.6-19.2-19.2l0,0c0-10.6,8.6-19.2,19.2-19.2h302.6
	c10.6,0,19.2,8.6,19.2,19.2l0,0C571,1170,562.4,1178.6,551.8,1178.6z"/>
<polygon class="st5" points="612.7,1166.7 634.8,1188.1 656.2,1166.1 "/>
<polygon class="st5" points="656.2,1157.9 634.1,1136.4 612.7,1158.5 "/>
<path class="st5" d="M1043.4,1178.6H740.8c-10.6,0-19.2-8.6-19.2-19.2l0,0c0-10.6,8.6-19.2,19.2-19.2h302.6
	c10.6,0,19.2,8.6,19.2,19.2l0,0C1062.6,1170,1053.9,1178.6,1043.4,1178.6z"/>
<polygon class="st5" points="1104.3,1166.7 1126.4,1188.1 1147.8,1166.1 "/>
<polygon class="st5" points="1147.8,1157.9 1125.7,1136.4 1104.3,1158.5 "/>
<path class="st5" d="M1535,1178.6h-302.6c-10.6,0-19.2-8.6-19.2-19.2l0,0c0-10.6,8.6-19.2,19.2-19.2H1535c10.6,0,19.2,8.6,19.2,19.2
	l0,0C1554.2,1170,1545.5,1178.6,1535,1178.6z"/>
<polygon class="st5" points="1595.9,1166.7 1618,1188.1 1639.4,1166.1 "/>
<polygon class="st5" points="1639.4,1157.9 1617.3,1136.4 1595.9,1158.5 "/>
<path class="st5" d="M2003.2,1178.6h-302.6c-10.6,0-19.2-8.6-19.2-19.2l0,0c0-10.6,8.6-19.2,19.2-19.2h302.6
	c10.6,0,19.2,8.6,19.2,19.2l0,0C2022.5,1170,2013.8,1178.6,2003.2,1178.6z"/>
<polygon class="st5" points="2064.2,1166.7 2086.2,1188.1 2107.7,1166.1 "/>
<polygon class="st5" points="2107.7,1157.9 2085.6,1136.4 2064.2,1158.5 "/>
<rect x="94.7" y="1257.1" class="st2" width="2055.5" height="119.6"/>
<rect x="121.9" y="1292.1" class="st3" width="50.4" height="50.4"/>
<path class="st6" d="M551.8,1336.2H249.2c-10.6,0-19.2-8.6-19.2-19.2l0,0c0-10.6,8.6-19.2,19.2-19.2h302.6
	c10.6,0,19.2,8.6,19.2,19.2l0,0C571,1327.5,562.4,1336.2,551.8,1336.2z"/>
<polygon class="st5" points="612.7,1324.2 634.8,1345.7 656.2,1323.6 "/>
<polygon class="st5" points="656.2,1315.4 634.1,1294 612.7,1316.1 "/>
<path class="st5" d="M1043.4,1336.2H740.8c-10.6,0-19.2-8.6-19.2-19.2l0,0c0-10.6,8.6-19.2,19.2-19.2h302.6
	c10.6,0,19.2,8.6,19.2,19.2l0,0C1062.6,1327.5,1053.9,1336.2,1043.4,1336.2z"/>
<polygon class="st5" points="1104.3,1324.2 1126.4,1345.7 1147.8,1323.6 "/>
<polygon class="st5" points="1147.8,1315.4 1125.7,1294 1104.3,1316.1 "/>
<path class="st5" d="M1535,1336.2h-302.6c-10.6,0-19.2-8.6-19.2-19.2l0,0c0-10.6,8.6-19.2,19.2-19.2H1535c10.6,0,19.2,8.6,19.2,19.2
	l0,0C1554.2,1327.5,1545.5,1336.2,1535,1336.2z"/>
<polygon class="st5" points="1595.9,1324.2 1618,1345.7 1639.4,1323.6 "/>
<polygon class="st5" points="1639.4,1315.4 1617.3,1294 1595.9,1316.1 "/>
<path class="st5" d="M2003.2,1336.2h-302.6c-10.6,0-19.2-8.6-19.2-19.2l0,0c0-10.6,8.6-19.2,19.2-19.2h302.6
	c10.6,0,19.2,8.6,19.2,19.2l0,0C2022.5,1327.5,2013.8,1336.2,2003.2,1336.2z"/>
<polygon class="st5" points="2064.2,1324.2 2086.2,1345.7 2107.7,1323.6 "/>
<polygon class="st5" points="2107.7,1315.4 2085.6,1294 2064.2,1316.1 "/>
<g>
	<rect y="3.7" class="st7" width="2267.7" height="101.4"/>
	<circle class="st8" cx="64" cy="54.4" r="19.7"/>
	<circle class="st8" cx="132.1" cy="54.4" r="19.7"/>
	<circle class="st8" cx="195.5" cy="54.4" r="19.7"/>
</g>
</svg>
