<?xml version="1.0" encoding="utf-8"?>
<!-- Generator: Adobe Illustrator 21.0.0, SVG Export Plug-In . SVG Version: 6.00 Build 0)  -->
<svg version="1.1" id="Layer_1" xmlns="http://www.w3.org/2000/svg" xmlns:xlink="http://www.w3.org/1999/xlink" x="0px" y="0px"
	 viewBox="0 0 2267.7 1602.6" style="enable-background:new 0 0 2267.7 1602.6;" xml:space="preserve">
<style type="text/css">
	.st0{fill:#FFFFFF;}
	.st1{fill:#E8E8E8;}
	.st2{fill:#CECECE;}
	.st3{font-family:'MyriadPro-Regular';}
	.st4{font-size:265.1862px;}
	.st5{font-size:181.6628px;}
	.st6{font-size:141.9892px;}
	.st7{font-size:110.6683px;}
	.st8{opacity:0.5;fill:none;stroke:#D6D6D6;stroke-width:8;stroke-miterlimit:10;}
</style>
<rect class="st0" width="2267.7" height="1500"/>
<g>
	<rect class="st1" width="2267.7" height="101.4"/>
	<circle class="st2" cx="64" cy="50.7" r="19.7"/>
	<circle class="st2" cx="132.1" cy="50.7" r="19.7"/>
	<circle class="st2" cx="195.5" cy="50.7" r="19.7"/>
</g>
<text transform="matrix(1 0 0 1 175.8049 457.2453)" class="st1 st3 st4">h1. </text>
<text transform="matrix(1 0 0 1 976.8627 457.2454)" class="st1 st3 st4">p </text>
<text transform="matrix(1 0 0 1 175.8043 771.2123)" class="st1 st3 st5">h2. </text>
<text transform="matrix(1 0 0 1 175.8043 1048.3713)" class="st1 st3 st6">h3. </text>
<text transform="matrix(1 0 0 1 175.8043 1327.9819)" class="st1 st3 st7">h4. </text>
<path class="st8" d="M840.9,687.9c29,4.3,58.9,2.5,87.2-5.4c4.9-1.3,9.8-2.9,14.8-2.5c12.1,1,22.8,13.1,34.5,9.8
	c8-2.3,16-11.3,22.7-6.4c2.7,2,3.6,5.7,6.1,8c2.6,2.5,6.3,3,9.8,3.5c52,6.7,104.6,8.7,156.9,5.9"/>
<path class="st8" d="M1281.6,701.3c8.2,0.1,16.4,0.3,24.5,0.4c0.9,4.3,1.9,8.7,2.8,13c6.9-10,18.7-16.4,30.8-16.7
	c16.5-0.4,31.8,9.7,48.3,10.3c26.3,1,50.9-21.9,76.4-15.3"/>
<path class="st8" d="M1530.2,691.1c23.2,5.1,48.1,2,69.2-8.8c7.9-4,18.5-8.6,24.5-2.1c2.7,2.9,3.3,7.2,5.8,10.2
	c4.4,5.3,12.6,4.6,19.3,3.5c37.9-6.2,75.7-12.8,113.4-19.9"/>
<path class="st8" d="M1868.9,693.4c40.5,4.6,86.7,7.4,116.5-20.3c2.7-2.5,5.7-5.5,9.5-5.3c3.7,0.2,6.1,6.2,2.7,7.5"/>
<path class="st8" d="M940.4,816.4c4.3-9.8,14-17,24.6-18.4c2.9,12.2,7.4,26.4,19.3,30.4c11.1,3.8,23-3.6,30.7-12.4
	c7.7-8.9,13.4-19.7,22.9-26.6c10.9-7.9,25-9.4,38.4-10.6c15.7-1.4,31.4-2.9,47.2-4.3c12-1.1,26.1-1.4,34,7.7"/>
<path class="st8" d="M1217.5,798.2c19.9,7.9,41.9,10.5,63,7.3c6.4-0.9,13.1-2.4,19.2,0c3.3,1.3,6,3.6,9.2,5.1
	c4.3,2,9.1,2.3,13.8,2.5c18.4,1.1,36.8,2.2,55.1,3.3"/>
<path class="st8" d="M1507.6,830.2c5.8-10.7,22.7-13,31.1-4.2c3.5,3.7,5.5,8.6,9.4,11.8c8.9,7.3,22,2.1,32.7-2.1
	c21.2-8.2,44.3-11.2,66.8-8.8"/>
<path class="st8" d="M1741.1,831.8c4.2,0.2,8.4,0.5,12.6,0.7c-2.3,6,4.2,12.4,10.6,12.5s12.1-3.7,17.3-7.5c5.1-3.8,10.7-7.9,17-8.2
	c4.3-0.2,8.4,1.3,12.5,2.5c22.4,6.4,47.4,3.5,67.7-7.8c3.3-1.8,6.9-4,10.5-3.1c1.9,0.4,3.5,1.6,5.1,2.6c5.9,3.6,12.7,5.5,19.4,7.4
	c10.5,2.9,21.1,5.8,31.6,8.7"/>
<path class="st8" d="M1002.6,950.4c12.2-9.9,27.1-16.5,42.7-19c0.5,4.5,1.1,9,1.6,13.5c12.1-5.9,25-10.1,38.2-12.6
	c19.6-3.7,39.8-3.6,59.8-3.4"/>
<path class="st8" d="M1191.6,937.8c17.7-5,35.5,5.8,53.4,9.9c11.2,2.5,22.8,2.4,34.3,2.3c14.6-0.2,29.2-0.3,43.8-0.5
	c5.6-0.1,11.4-0.2,16.4-2.8c6.9-3.6,12.8-11.8,20.3-9.7"/>
<path class="st8" d="M1428.9,956.5c1.1-8.9,12.9-12.3,21.4-9.6s15.5,9.1,23.9,12.2c9.2,3.4,19.4,2.6,29.2,1.7
	c20.1-1.8,40.2-3.6,60.3-5.5"/>
<path class="st8" d="M1607.8,957.6c68.2-10.7,138-11.6,206.5-2.8c14.9,1.9,30.5,4.2,44.8-0.6c11.2-3.8,21.2-12,33.1-12
	c19.9-0.1,39,22.6,56.4,12.7"/>
<path class="st8" d="M840.9,1065.1c29,4.3,58.9,2.5,87.2-5.4c4.9-1.3,9.8-2.9,14.8-2.5c12.1,1,22.8,13.1,34.5,9.8
	c8-2.3,16-11.3,22.7-6.4c2.7,2,3.6,5.7,6.1,8c2.6,2.5,6.3,3,9.8,3.5c52,6.7,104.6,8.7,156.9,5.9"/>
<path class="st8" d="M1281.6,1078.5c8.2,0.1,16.4,0.3,24.5,0.4c0.9,4.3,1.9,8.7,2.8,13c6.9-10,18.7-16.4,30.8-16.7
	c16.5-0.4,31.8,9.7,48.3,10.3c26.3,1,50.9-21.9,76.4-15.3"/>
<path class="st8" d="M1530.2,1068.3c23.2,5.1,48.1,2,69.2-8.8c7.9-4,18.5-8.6,24.5-2.1c2.7,2.9,3.3,7.2,5.8,10.2
	c4.4,5.3,12.6,4.6,19.3,3.5c37.9-6.2,75.7-12.8,113.4-19.9"/>
<path class="st8" d="M1868.9,1070.6c40.5,4.6,86.7,7.4,116.5-20.3c2.7-2.5,5.7-5.5,9.5-5.3c3.7,0.2,6.1,6.2,2.7,7.5"/>
<path class="st8" d="M940.4,1193.7c4.3-9.8,14-17,24.6-18.4c2.9,12.2,7.4,26.4,19.3,30.4c11.1,3.8,23-3.6,30.7-12.4
	s13.4-19.7,22.9-26.6c10.9-7.9,25-9.4,38.4-10.6c15.7-1.4,31.4-2.9,47.2-4.3c12-1.1,26.1-1.4,34,7.7"/>
<path class="st8" d="M1217.5,1175.4c19.9,7.9,41.9,10.5,63,7.3c6.4-0.9,13.1-2.4,19.2,0c3.3,1.3,6,3.6,9.2,5.1
	c4.3,2,9.1,2.3,13.8,2.6c18.4,1.1,36.8,2.2,55.1,3.3"/>
<path class="st8" d="M1507.6,1207.4c5.8-10.7,22.7-13,31.1-4.2c3.5,3.7,5.5,8.6,9.4,11.8c8.9,7.3,22,2.1,32.7-2.1
	c21.2-8.2,44.3-11.2,66.8-8.8"/>
<path class="st8" d="M1741.1,1209c4.2,0.2,8.4,0.5,12.6,0.7c-2.3,6,4.2,12.4,10.6,12.5s12.1-3.7,17.3-7.5c5.1-3.8,10.7-7.9,17-8.2
	c4.3-0.2,8.4,1.3,12.5,2.5c22.4,6.4,47.4,3.5,67.7-7.8c3.3-1.8,6.9-4,10.5-3.1c1.9,0.4,3.5,1.6,5.1,2.6c5.9,3.6,12.7,5.5,19.4,7.4
	c10.5,2.9,21.1,5.8,31.6,8.7"/>
<path class="st8" d="M1002.6,1327.6c12.2-9.9,27.1-16.5,42.7-19c0.5,4.5,1.1,9,1.6,13.5c12.1-5.9,25-10.1,38.2-12.6
	c19.6-3.7,39.8-3.6,59.8-3.4"/>
<path class="st8" d="M1191.6,1315c17.7-5,35.5,5.8,53.4,9.9c11.2,2.5,22.8,2.4,34.3,2.3c14.6-0.2,29.2-0.3,43.8-0.5
	c5.6-0.1,11.4-0.2,16.4-2.8c6.9-3.6,12.8-11.8,20.3-9.7"/>
<path class="st8" d="M1428.9,1333.8c1.1-8.9,12.9-12.3,21.4-9.6c8.5,2.7,15.5,9.1,23.9,12.2c9.2,3.4,19.4,2.6,29.2,1.7
	c20.1-1.8,40.2-3.6,60.3-5.5"/>
<path class="st8" d="M1607.8,1334.9c68.2-10.7,138-11.6,206.5-2.8c14.9,1.9,30.5,4.2,44.8-0.6c11.2-3.8,21.2-12,33.1-12
	c19.9-0.1,39,22.6,56.4,12.7"/>
</svg>
