<?xml version="1.0" encoding="utf-8"?>
<!-- Generator: Adobe Illustrator 21.0.0, SVG Export Plug-In . SVG Version: 6.00 Build 0)  -->
<svg version="1.1" id="Capa_1" xmlns="http://www.w3.org/2000/svg" xmlns:xlink="http://www.w3.org/1999/xlink" x="0px" y="0px"
	 viewBox="0 0 512 512" style="enable-background:new 0 0 512 512;" xml:space="preserve">
<style type="text/css">
	.st0{fill:#FA2F31;}
</style>
<g>
	<path class="st0" d="M256,0c4.3,0,7.8,3.5,7.8,7.8v496.3c0,4.3-3.5,7.8-7.8,7.8c-4.3,0-7.8-3.5-7.8-7.8V7.8
		C248.2,3.5,251.7,0,256,0z"/>
	<path class="st0" d="M59.3,299.6c2,0,4,0.8,5.6,2.3L256,493.1l191.2-191.1c3.1-3.1,8-3.1,11.1,0c3.1,3.1,3.1,8,0,11.1L261.5,509.7
		c-1.5,1.5-3.5,2.3-5.5,2.3l0,0c-2.1,0-4.1-0.8-5.6-2.3L53.8,313c-3.1-3.1-3.1-8,0-11.1C55.3,300.4,57.3,299.6,59.3,299.6z"/>
</g>
</svg>
