<?xml version="1.0" encoding="utf-8"?>
<!-- Generator: Adobe Illustrator 21.0.0, SVG Export Plug-In . SVG Version: 6.00 Build 0)  -->
<svg version="1.1" id="Layer_1" xmlns="http://www.w3.org/2000/svg" xmlns:xlink="http://www.w3.org/1999/xlink" x="0px" y="0px"
	 viewBox="0 0 1920 1080" style="enable-background:new 0 0 1920 1080;" xml:space="preserve">
<style type="text/css">
	.st0{fill:url(#SVGID_1_);}
</style>
<g>
	<radialGradient id="SVGID_1_" cx="960" cy="540" r="778.8453" gradientUnits="userSpaceOnUse">
		<stop  offset="0" style="stop-color:#FFFFFF"/>
		<stop  offset="1" style="stop-color:#EBEBEB"/>
	</radialGradient>
	<path class="st0" d="M0,0v1080h1920V0H0z M781,568.7h-46.2v74.9H681v-74.9H524.2v-42.5L681,299.4h53.8v223.5H781V568.7z
		 M1014.4,604.8c-19.2,29-48.5,43.4-87.9,43.4c-38.2,0-67.1-14.9-86.8-44.8c-19.7-29.9-29.6-73.7-29.6-131.4
		c0-60.6,9.6-105.2,28.8-133.9c19.2-28.7,48.4-43.1,87.7-43.1c38.3,0,67.4,15,87.1,45.1s29.6,74,29.6,131.9
		C1043.2,531.6,1033.6,575.9,1014.4,604.8z M1329.8,568.7h-46.2v74.9h-53.8v-74.9H1073v-42.5l156.8-226.7h53.8v223.5h46.2V568.7z"/>
</g>
</svg>
