<?xml version="1.0" encoding="utf-8"?>
<!-- Generator: Adobe Illustrator 21.0.0, SVG Export Plug-In . SVG Version: 6.00 Build 0)  -->
<svg version="1.1" id="Layer_1" xmlns="http://www.w3.org/2000/svg" xmlns:xlink="http://www.w3.org/1999/xlink" x="0px" y="0px"
	 viewBox="0 0 656.9 1080" style="enable-background:new 0 0 656.9 1080;" xml:space="preserve">
<style type="text/css">
	.st0{fill:url(#SVGID_1_);}
</style>
<g>
	<radialGradient id="SVGID_1_" cx="327.1506" cy="540" r="446.4457" gradientUnits="userSpaceOnUse">
		<stop  offset="0" style="stop-color:#FFFFFF"/>
		<stop  offset="1" style="stop-color:#EBEBEB"/>
	</radialGradient>
	<path class="st0" d="M0,0v1080h654.3V0H0z M244.7,526.6h-26.2V569H188v-42.4H99.2v-24.1L188,374.1h30.4v126.6h26.2V526.6z
		 M376.9,547c-10.9,16.4-27.5,24.6-49.8,24.6c-21.6,0-38-8.5-49.2-25.4c-11.2-16.9-16.8-41.7-16.8-74.4c0-34.3,5.4-59.6,16.3-75.8
		c10.9-16.3,27.4-24.4,49.7-24.4c21.7,0,38.2,8.5,49.3,25.5c11.2,17,16.8,41.9,16.8,74.7C393.2,505.6,387.7,530.6,376.9,547z
		 M555.5,526.6h-26.2V569h-30.4v-42.4H410v-24.1l88.8-128.4h30.4v126.6h26.2V526.6z"/>
</g>
</svg>
