<?xml version="1.0" encoding="utf-8"?>
<!-- Generator: Adobe Illustrator 21.0.0, SVG Export Plug-In . SVG Version: 6.00 Build 0)  -->
<svg version="1.1" id="Layer_1" xmlns="http://www.w3.org/2000/svg" xmlns:xlink="http://www.w3.org/1999/xlink" x="0px" y="0px"
	 viewBox="0 0 1920 1080" style="enable-background:new 0 0 1920 1080;" xml:space="preserve">
<style type="text/css">
	.st0{fill:url(#SVGID_1_);}
	.st1{fill:url(#SVGID_2_);}
	.st2{fill:url(#SVGID_3_);}
	.st3{fill:url(#SVGID_4_);}
	.st4{fill:url(#SVGID_5_);}
	.st5{opacity:0.8;fill:#19A1F5;}
	.st6{fill:url(#SVGID_6_);}
	.st7{fill:url(#SVGID_7_);}
	.st8{fill:url(#SVGID_8_);}
	.st9{fill:url(#SVGID_9_);}
	.st10{opacity:0.2;}
	.st11{fill:url(#SVGID_10_);}
	.st12{fill:url(#SVGID_11_);}
	.st13{fill:url(#SVGID_12_);}
	.st14{fill:url(#SVGID_13_);}
	.st15{fill:url(#SVGID_14_);}
	.st16{fill:url(#SVGID_15_);}
	.st17{fill:url(#SVGID_16_);}
	.st18{opacity:0.5;}
	.st19{fill:url(#SVGID_17_);}
	.st20{fill:url(#SVGID_18_);}
	.st21{fill:url(#SVGID_19_);}
	.st22{fill:url(#SVGID_20_);}
	.st23{fill:url(#SVGID_21_);}
	.st24{fill:url(#SVGID_22_);}
	.st25{fill:url(#SVGID_23_);}
	.st26{fill:url(#SVGID_24_);}
	.st27{fill:url(#SVGID_25_);}
</style>
<radialGradient id="SVGID_1_" cx="3.6584" cy="-2.6362" r="1521.153" gradientTransform="matrix(1.37 0 0 1.0298 0.8332 0.1138)" gradientUnits="userSpaceOnUse">
	<stop  offset="0" style="stop-color:#0890BF"/>
	<stop  offset="1" style="stop-color:#02165B"/>
</radialGradient>
<rect x="-0.5" y="-3.8" class="st0" width="1922.6" height="1083.8"/>
<linearGradient id="SVGID_2_" gradientUnits="userSpaceOnUse" x1="272.7707" y1="870.1768" x2="1484.5507" y2="870.1768">
	<stop  offset="4.000000e-02" style="stop-color:#1DC5E9;stop-opacity:0"/>
	<stop  offset="1" style="stop-color:#65C8D0"/>
</linearGradient>
<path class="st1" d="M1458,699.8l-299.3,286.4c0,0-12.4,13.3-26.6,0S860.3,728.4,860.3,728.4s-22.4-17-48.3,0
	S612.9,912.7,612.9,912.7s-13.6,15-30.6,0S397.3,729.8,397.3,729.8s-25.8-17-49,0s-68.7,67.3-68.7,67.3s-15.6,25.8,0,43.5
	C295.4,858.3,416.4,984,416.4,984l-13.6,29.9l24.5,30.6c0,0,34.7-54.4,17-77.5c-17.7-23.1-128.5-133.9-128.5-133.9s-15-12.2-2-25.8
	c12.9-13.6,46.6-46.6,46.6-46.6s9.5-15,22.8-1.7c13.3,13.3,181.2,181.2,181.2,181.2s34,32,67-1s189.7-178.8,189.7-178.8
	s12.2-19.7,31.3-0.7c19,19,269.2,257.7,269.2,257.7s29.9,18.4,50.3,0c20.4-18.4,309.4-295.8,309.4-295.8c5.1-6.4,4.5-15.7-1.2-21.3
	C1474,694.5,1464.4,694.2,1458,699.8z"/>
<linearGradient id="SVGID_3_" gradientUnits="userSpaceOnUse" x1="-0.9577" y1="223.3657" x2="680.2778" y2="223.3657">
	<stop  offset="0.224" style="stop-color:#1DC5E9"/>
	<stop  offset="0.9144" style="stop-color:#339BD0"/>
</linearGradient>
<path class="st2" d="M-1-3.8v454.4c0,0,108.3,3.2,144.6-91.5s55.2-206.8,164.1-209.9s243.1,47.3,307.8-9.5S680.3-3.8,680.3-3.8H-1z"
	/>
<linearGradient id="SVGID_4_" gradientUnits="userSpaceOnUse" x1="-1454.8456" y1="387.7305" x2="-1454.8456" y2="387.7305">
	<stop  offset="4.000000e-02" style="stop-color:#1DC5E9;stop-opacity:0"/>
	<stop  offset="1" style="stop-color:#65C8D0"/>
</linearGradient>
<path class="st3" d="M-1454.8,387.7"/>
<linearGradient id="SVGID_5_" gradientUnits="userSpaceOnUse" x1="1194.5966" y1="602.4033" x2="1994.829" y2="602.4033" gradientTransform="matrix(0.7727 -0.6347 0.6347 0.7727 -41.3955 687.2944)">
	<stop  offset="0" style="stop-color:#0A7DC8;stop-opacity:0.9"/>
	<stop  offset="0.3455" style="stop-color:#1199D5;stop-opacity:0.29"/>
	<stop  offset="0.7" style="stop-color:#1DC5E9;stop-opacity:0"/>
</linearGradient>
<path class="st4" d="M1270.5,228.9L1270.5,228.9c-45.9,40.4-49,113.7-6.4,165.6s115.2,63.1,163.7,25.9l0,0.1l533.3-438.1
	l-157.3-191.5L1270.5,228.9z"/>
<path class="st5" d="M1498.3,274.5L1498.3,274.5c-33.7,29.7-36,83.6-4.7,121.7c31.3,38.1,84.6,46.3,120.3,19l0,0l392-322
	L1890.2-47.4L1498.3,274.5z"/>
<linearGradient id="SVGID_6_" gradientUnits="userSpaceOnUse" x1="1011.7775" y1="270.7153" x2="1128.8662" y2="270.7153" gradientTransform="matrix(1.553 -1.2756 0.6347 0.7727 -830.353 1335.3307)">
	<stop  offset="0" style="stop-color:#0A7DC8;stop-opacity:0.9"/>
	<stop  offset="0.4564" style="stop-color:#1199D5;stop-opacity:0.29"/>
	<stop  offset="0.893" style="stop-color:#1DC5E9;stop-opacity:0"/>
</linearGradient>
<path class="st6" d="M915.4,226.8L915.4,226.8c-7.9,6.8-9.1,18.5-3.1,26.4c6.3,8.4,18.9,10.2,27.6,3.4l0,0l167-137.2l-24.5-29.8
	L915.4,226.8z"/>
<linearGradient id="SVGID_7_" gradientUnits="userSpaceOnUse" x1="1268.255" y1="1013.7898" x2="1344.4507" y2="1013.7898" gradientTransform="matrix(1.9778 -1.6246 0.6347 0.7727 -1368.5515 1777.3977)">
	<stop  offset="0.107" style="stop-color:#1DC5E9"/>
	<stop  offset="1" style="stop-color:#0A7DC8;stop-opacity:0.9"/>
</linearGradient>
<path class="st7" d="M1784,483.2L1784,483.2c-4.6,4.9-4.7,12.5-0.4,17.5c4.1,4.8,11.3,5.8,16.8,2.4l0,0l141.9-116.5l-16.4-19.9
	L1784,483.2z"/>
<radialGradient id="SVGID_8_" cx="11.9121" cy="1088.4882" r="478.4965" gradientUnits="userSpaceOnUse">
	<stop  offset="1.747676e-02" style="stop-color:#053B7B"/>
	<stop  offset="1" style="stop-color:#0A7DC8;stop-opacity:0.9"/>
</radialGradient>
<path class="st8" d="M-1,606.8v481.6h469.5c0,0-7.8-165-145.3-167.6c-137.6-2.6-181.5-11.3-199.7-101.3S101.4,619.9-1,606.8z"/>
<linearGradient id="SVGID_9_" gradientUnits="userSpaceOnUse" x1="698.1705" y1="733.6024" x2="822.239" y2="733.6024" gradientTransform="matrix(0.9152 -0.7518 0.6347 0.7727 -410.5257 990.4918)">
	<stop  offset="0" style="stop-color:#0A7DC8;stop-opacity:0.9"/>
	<stop  offset="0.4564" style="stop-color:#1199D5;stop-opacity:0.29"/>
	<stop  offset="0.893" style="stop-color:#1DC5E9;stop-opacity:0"/>
</linearGradient>
<path class="st9" d="M697,1005.2L697,1005.2c-7.7,6.7-9.2,17.9-4.2,25.5c5.8,8.9,19.1,11.5,28.7,4.3l0,0l98.4-80.8l-24.5-29.8
	L697,1005.2z"/>
<g class="st10">
	
		<linearGradient id="SVGID_10_" gradientUnits="userSpaceOnUse" x1="1056.4685" y1="794.8914" x2="1082.7605" y2="794.8914" gradientTransform="matrix(0.9998 -1.816306e-02 1.816306e-02 0.9998 -12.1044 18.8794)">
		<stop  offset="0" style="stop-color:#0A7DC8;stop-opacity:0.9"/>
		<stop  offset="0.4564" style="stop-color:#1199D5;stop-opacity:0.29"/>
		<stop  offset="0.893" style="stop-color:#1DC5E9;stop-opacity:0"/>
	</linearGradient>
	<circle class="st11" cx="1071.8" cy="794.2" r="13.1"/>
	
		<linearGradient id="SVGID_11_" gradientUnits="userSpaceOnUse" x1="1081.7047" y1="773.6194" x2="1107.9968" y2="773.6194" gradientTransform="matrix(0.9998 -1.816308e-02 1.816308e-02 0.9998 -12.1044 18.8794)">
		<stop  offset="0" style="stop-color:#0A7DC8;stop-opacity:0.9"/>
		<stop  offset="0.4564" style="stop-color:#1199D5;stop-opacity:0.29"/>
		<stop  offset="0.893" style="stop-color:#1DC5E9;stop-opacity:0"/>
	</linearGradient>
	<circle class="st12" cx="1096.6" cy="772.5" r="13.1"/>
	
		<linearGradient id="SVGID_12_" gradientUnits="userSpaceOnUse" x1="1106.941" y1="752.3475" x2="1133.2332" y2="752.3475" gradientTransform="matrix(0.9998 -1.816308e-02 1.816308e-02 0.9998 -12.1044 18.8794)">
		<stop  offset="0" style="stop-color:#0A7DC8;stop-opacity:0.9"/>
		<stop  offset="0.4564" style="stop-color:#1199D5;stop-opacity:0.29"/>
		<stop  offset="0.893" style="stop-color:#1DC5E9;stop-opacity:0"/>
	</linearGradient>
	<circle class="st13" cx="1121.5" cy="750.8" r="13.1"/>
	
		<linearGradient id="SVGID_13_" gradientUnits="userSpaceOnUse" x1="1132.1774" y1="731.0755" x2="1158.4694" y2="731.0755" gradientTransform="matrix(0.9998 -1.816308e-02 1.816308e-02 0.9998 -12.1044 18.8794)">
		<stop  offset="0" style="stop-color:#0A7DC8;stop-opacity:0.9"/>
		<stop  offset="0.4564" style="stop-color:#1199D5;stop-opacity:0.29"/>
		<stop  offset="0.893" style="stop-color:#1DC5E9;stop-opacity:0"/>
	</linearGradient>
	<circle class="st14" cx="1146.3" cy="729" r="13.1"/>
	
		<linearGradient id="SVGID_14_" gradientUnits="userSpaceOnUse" x1="1157.4136" y1="709.8035" x2="1183.7057" y2="709.8035" gradientTransform="matrix(0.9998 -1.816308e-02 1.816308e-02 0.9998 -12.1044 18.8794)">
		<stop  offset="0" style="stop-color:#0A7DC8;stop-opacity:0.9"/>
		<stop  offset="0.4564" style="stop-color:#1199D5;stop-opacity:0.29"/>
		<stop  offset="0.893" style="stop-color:#1DC5E9;stop-opacity:0"/>
	</linearGradient>
	<circle class="st15" cx="1171.2" cy="707.3" r="13.1"/>
	
		<linearGradient id="SVGID_15_" gradientUnits="userSpaceOnUse" x1="1182.6499" y1="688.5316" x2="1208.942" y2="688.5316" gradientTransform="matrix(0.9998 -1.816308e-02 1.816308e-02 0.9998 -12.1044 18.8794)">
		<stop  offset="0" style="stop-color:#0A7DC8;stop-opacity:0.9"/>
		<stop  offset="0.4564" style="stop-color:#1199D5;stop-opacity:0.29"/>
		<stop  offset="0.893" style="stop-color:#1DC5E9;stop-opacity:0"/>
	</linearGradient>
	<circle class="st16" cx="1196" cy="685.6" r="13.1"/>
	
		<linearGradient id="SVGID_16_" gradientUnits="userSpaceOnUse" x1="1207.8862" y1="667.2596" x2="1234.1782" y2="667.2596" gradientTransform="matrix(0.9998 -1.816306e-02 1.816306e-02 0.9998 -12.1044 18.8794)">
		<stop  offset="0" style="stop-color:#0A7DC8;stop-opacity:0.9"/>
		<stop  offset="0.4564" style="stop-color:#1199D5;stop-opacity:0.29"/>
		<stop  offset="0.893" style="stop-color:#1DC5E9;stop-opacity:0"/>
	</linearGradient>
	<circle class="st17" cx="1220.8" cy="663.9" r="13.1"/>
</g>
<g class="st18">
	<linearGradient id="SVGID_17_" gradientUnits="userSpaceOnUse" x1="1471.4692" y1="1075.5728" x2="1544.2937" y2="1075.5728">
		<stop  offset="0" style="stop-color:#0A7DC8;stop-opacity:0.9"/>
		<stop  offset="0.4564" style="stop-color:#1199D5;stop-opacity:0.29"/>
		<stop  offset="0.893" style="stop-color:#1DC5E9;stop-opacity:0"/>
	</linearGradient>
	<circle class="st19" cx="1507.9" cy="1075.6" r="36.4"/>
	
		<linearGradient id="SVGID_18_" gradientUnits="userSpaceOnUse" x1="1541.3684" y1="1016.6541" x2="1614.1929" y2="1016.6541" gradientTransform="matrix(1 0 0 1 1.014270e-03 -1.031146e-03)">
		<stop  offset="0" style="stop-color:#0A7DC8;stop-opacity:0.9"/>
		<stop  offset="0.4564" style="stop-color:#1199D5;stop-opacity:0.29"/>
		<stop  offset="0.893" style="stop-color:#1DC5E9;stop-opacity:0"/>
	</linearGradient>
	<circle class="st20" cx="1577.8" cy="1016.7" r="36.4"/>
	
		<linearGradient id="SVGID_19_" gradientUnits="userSpaceOnUse" x1="1611.2686" y1="957.7344" x2="1684.093" y2="957.7344" gradientTransform="matrix(1 0 0 1 1.008403e-03 -1.040220e-03)">
		<stop  offset="0" style="stop-color:#0A7DC8;stop-opacity:0.9"/>
		<stop  offset="0.4564" style="stop-color:#1199D5;stop-opacity:0.29"/>
		<stop  offset="0.893" style="stop-color:#1DC5E9;stop-opacity:0"/>
	</linearGradient>
	<circle class="st21" cx="1647.7" cy="957.7" r="36.4"/>
	
		<linearGradient id="SVGID_20_" gradientUnits="userSpaceOnUse" x1="1681.1687" y1="898.8148" x2="1753.9933" y2="898.8148" gradientTransform="matrix(1 0 0 1 1.002536e-03 -1.049294e-03)">
		<stop  offset="0" style="stop-color:#0A7DC8;stop-opacity:0.9"/>
		<stop  offset="0.4564" style="stop-color:#1199D5;stop-opacity:0.29"/>
		<stop  offset="0.893" style="stop-color:#1DC5E9;stop-opacity:0"/>
	</linearGradient>
	<circle class="st22" cx="1717.6" cy="898.8" r="36.4"/>
	
		<linearGradient id="SVGID_21_" gradientUnits="userSpaceOnUse" x1="1751.069" y1="839.8951" x2="1823.8934" y2="839.8951" gradientTransform="matrix(1 0 0 1 9.966684e-04 -1.058369e-03)">
		<stop  offset="0" style="stop-color:#0A7DC8;stop-opacity:0.9"/>
		<stop  offset="0.4564" style="stop-color:#1199D5;stop-opacity:0.29"/>
		<stop  offset="0.893" style="stop-color:#1DC5E9;stop-opacity:0"/>
	</linearGradient>
	<circle class="st23" cx="1787.5" cy="839.9" r="36.4"/>
	
		<linearGradient id="SVGID_22_" gradientUnits="userSpaceOnUse" x1="1820.9691" y1="780.9755" x2="1893.7936" y2="780.9755" gradientTransform="matrix(1 0 0 1 9.908011e-04 -1.067443e-03)">
		<stop  offset="0" style="stop-color:#0A7DC8;stop-opacity:0.9"/>
		<stop  offset="0.4564" style="stop-color:#1199D5;stop-opacity:0.29"/>
		<stop  offset="0.893" style="stop-color:#1DC5E9;stop-opacity:0"/>
	</linearGradient>
	<circle class="st24" cx="1857.4" cy="781" r="36.4"/>
	<linearGradient id="SVGID_23_" gradientUnits="userSpaceOnUse" x1="1890.8702" y1="722.0547" x2="1963.6947" y2="722.0547">
		<stop  offset="0" style="stop-color:#0A7DC8;stop-opacity:0.9"/>
		<stop  offset="0.4564" style="stop-color:#1199D5;stop-opacity:0.29"/>
		<stop  offset="0.893" style="stop-color:#1DC5E9;stop-opacity:0"/>
	</linearGradient>
	<circle class="st25" cx="1927.3" cy="722.1" r="36.4"/>
</g>
<linearGradient id="SVGID_24_" gradientUnits="userSpaceOnUse" x1="600.208" y1="-1.3857" x2="635.9031" y2="-1.3857" gradientTransform="matrix(3.7686 -3.0955 0.6347 0.7727 -2155.5171 2423.7979)">
	<stop  offset="0" style="stop-color:#0A7DC8;stop-opacity:0.9"/>
	<stop  offset="0.4564" style="stop-color:#1199D5;stop-opacity:0.29"/>
	<stop  offset="0.893" style="stop-color:#1DC5E9;stop-opacity:0"/>
</linearGradient>
<path class="st26" d="M106.6,556L106.6,556c-2.8,2.3-3.1,6.4-0.9,9c2.2,2.5,6.1,2.8,8.7,0.5l0,0L244,459.1l-7.8-9.5L106.6,556z"/>
<linearGradient id="SVGID_25_" gradientUnits="userSpaceOnUse" x1="819.2242" y1="42.8854" x2="1027.5923" y2="42.8854">
	<stop  offset="0.224" style="stop-color:#1DC5E9"/>
	<stop  offset="0.9144" style="stop-color:#339BD0"/>
</linearGradient>
<path class="st27" d="M819.2-3.8c7.7,12.2,12,22.7,14.6,30.1c2.4,7.1,3.6,12.7,7.6,21.2c3.8,8.1,7.9,14.3,10.8,18.3
	c2.3,3.2,6.1,7.6,11.5,11.9c7.6,5.9,18.9,11.9,33.8,11.9c29.6,0,60.1-3.2,130.1-93.4H819.2z"/>
</svg>
