<?xml version="1.0" encoding="utf-8"?>
<!-- Generator: Adobe Illustrator 21.0.0, SVG Export Plug-In . SVG Version: 6.00 Build 0)  -->
<svg version="1.1" id="Layer_1" xmlns="http://www.w3.org/2000/svg" xmlns:xlink="http://www.w3.org/1999/xlink" x="0px" y="0px"
	 viewBox="0 0 719.4 221.5" style="enable-background:new 0 0 719.4 221.5;" xml:space="preserve">
<style type="text/css">
	.st0{opacity:5.000000e-02;}
</style>
<path class="st0" d="M302.9,25.9h46.4l-29,170h-46.3L302.9,25.9z M284.2,26.1l-73,169.7l-49,0.1L120.7,54
	c29.8,19.1,55.2,49.4,64.2,70.5l4.8,17.5l45.4-116L284.2,26.1z M74.6,27.8l0.6-3.4h71.8c9.7,0.4,17.5,3.5,20.2,13.8l15.6,75.1
	C167.5,74.1,130.5,41.4,74.6,27.8z M481.6,140.4c-0.3,35.3-32,58.1-80.7,58.1c-20.8-0.2-40.8-4.3-51.6-9.1l6.5-38.1l6,2.7
	c15.2,6.3,25.1,8.9,43.6,8.9c13.3,0,27.6-5.2,27.7-16.6c0.1-7.4-6-12.8-24-21.1c-17.6-8.1-40.9-21.8-40.6-46.2
	C368.8,46,401,23,446.8,23c18,0,32.3,3.7,41.5,7.1L482.1,67l-4.2-2c-8.5-3.4-19.5-6.7-34.7-6.5c-18.1,0-26.6,7.6-26.6,14.6
	c-0.1,8,9.8,13.2,26,21.1C469.5,106.3,481.8,121.1,481.6,140.4z M550.1,135.7c3.8-9.8,18.5-47.5,18.5-47.5
	c-0.3,0.5,3.8-9.8,6.2-16.2l3.1,14.7c0,0,8.9,40.6,10.7,49.1H550.1z M607.3,26.1h-35.8c-11.1,0-19.4,3-24.3,14.1L478.4,196H527
	c0,0,7.9-21,9.7-25.5c5.3,0,52.6,0.1,59.3,0.1c1.4,5.9,5.6,25.5,5.6,25.5h43L607.3,26.1z"/>
</svg>
